<svg width="141" height="136" viewBox="0 0 141 136" fill="none" xmlns="http://www.w3.org/2000/svg">
<path d="M8.11355 53.4273C7.08732 53.4273 6.31508 54.1894 6.31508 55.2054V128.109C6.31508 129.125 7.08732 129.887 8.11355 129.887H132.484C133.51 129.887 134.282 129.125 134.282 128.109V55.2054C134.282 54.1894 133.51 53.4273 132.484 53.4273H8.11355ZM132.743 135.729H8.11355C4.00353 135.729 0.404053 132.173 0.404053 128.109V55.2054C0.404053 50.8871 3.74443 47.5849 8.11355 47.5849H132.484C136.853 47.5849 140.193 51.1411 140.193 55.2054V128.109C140.45 132.173 137.109 135.729 132.743 135.729Z" fill="#386641"/>
<path d="M37.1504 47.3307H104.732L98.308 32.5976H43.5746L37.1504 47.3307ZM109.101 53.4271H32.5248C31.4985 53.4271 30.4697 52.9191 29.9565 52.157C29.4409 51.395 29.4409 50.3789 29.6974 49.3628L38.6923 28.7873C39.2054 27.7712 40.2368 27.0092 41.517 27.0092H100.106C101.392 27.0092 102.418 27.7712 102.934 28.7873L111.926 49.1088C112.185 49.6169 112.185 49.8709 112.185 50.3789C112.185 51.903 110.9 53.4271 109.101 53.4271Z" fill="#386641"/>
<path d="M15.5661 47.3307H21.9903V44.2825H15.5661V47.3307ZM25.0741 53.4271H12.4823C10.9404 53.4271 9.39859 52.157 9.39859 50.3789V41.4883C9.39859 39.9641 10.6838 38.44 12.4823 38.44H25.0741C26.6135 38.44 28.1579 39.7101 28.1579 41.4883V50.3789C27.8988 51.903 26.6135 53.4271 25.0741 53.4271Z" fill="#386641"/>
<path d="M110.641 47.3307H125.546V44.2825H110.641V47.3307ZM128.628 53.4271H107.816C106.274 53.4271 104.732 52.157 104.732 50.3789V41.4883C104.732 39.9641 106.017 38.44 107.816 38.44H128.628C130.172 38.44 131.711 39.7101 131.711 41.4883V50.3789C131.457 51.903 130.172 53.4271 128.628 53.4271Z" fill="#386641"/>
<path d="M70.8135 19.3888C69.2716 19.3888 67.7296 18.1187 67.7296 16.3405V3.13156C67.7296 1.60744 69.015 0.0833282 70.8135 0.0833282C72.3553 0.0833282 73.8947 1.35342 73.8947 3.13156V16.5946C73.8947 18.1187 72.6119 19.3888 70.8135 19.3888Z" fill="#386641"/>
<path d="M83.4047 20.4046C82.8915 20.4046 82.3759 20.1506 81.8602 19.8966C80.5774 19.1345 80.0617 17.1024 80.834 15.8323L88.287 4.14739C89.0566 2.87729 91.1142 2.36925 92.3995 3.13131C93.6823 3.89337 94.198 5.92552 93.4258 7.19561L85.9728 18.8805C85.2031 19.8966 84.1743 20.4046 83.4047 20.4046Z" fill="#386641"/>
<path d="M58.2211 20.4046C57.1924 20.4046 56.1662 19.8966 55.653 19.1345L48.4567 7.44963C47.6845 6.17954 47.9436 4.14739 49.4855 3.38533C51.0274 2.62327 52.8258 2.87729 53.5955 4.4014L60.7894 16.0863C61.5616 17.3564 61.305 19.3885 59.7631 20.1506C59.25 20.1506 58.7368 20.4046 58.2211 20.4046Z" fill="#386641"/>
<path d="M60.0226 47.3307H80.8343V41.4883H60.0226V47.3307ZM83.9181 53.4271H57.1928C55.6534 53.4271 54.109 52.1571 54.109 50.3789V38.694C54.109 37.1699 55.3943 35.6458 57.1928 35.6458H83.9181C85.46 35.6458 87.002 36.9159 87.002 38.694V50.3789C86.7454 51.903 85.46 53.4271 83.9181 53.4271Z" fill="#386641"/>
<path d="M99.85 106.263H134.541V76.7968H99.85C102.162 81.3691 103.447 86.1955 103.447 91.5299C103.19 96.8643 102.162 101.691 99.85 106.263ZM137.623 112.105H94.4521C93.4258 112.105 92.3995 111.597 91.8838 110.581C91.3682 109.565 91.3682 108.295 92.1405 107.533C95.7374 102.961 97.5358 97.3723 97.5358 91.5299C97.5358 85.6874 95.7374 80.353 92.1405 75.5267C91.3682 74.5106 91.3682 73.4945 91.8838 72.4784C92.3995 71.4623 93.4258 70.9543 94.4521 70.9543H137.623C139.164 70.9543 140.706 72.2244 140.706 74.0025V109.311C140.45 110.835 139.164 112.105 137.623 112.105Z" fill="#386641"/>
<path d="M6.57418 106.263H41.263C38.9515 101.691 37.6661 96.8643 37.6661 91.5299C37.6661 86.4495 38.9515 81.3691 41.263 76.7968H6.57418V106.263ZM46.6583 112.105H3.49036C1.94592 112.105 0.404053 110.835 0.404053 109.057V74.0025C0.404053 72.4784 1.68936 70.9543 3.49036 70.9543H46.6583C47.6846 70.9543 48.7134 71.4623 49.229 72.4784C49.7422 73.4945 49.7421 74.7646 48.9699 75.5267C45.373 80.099 43.5746 85.6874 43.5746 91.5299C43.5746 97.3723 45.373 102.707 48.9699 107.533C49.7421 108.549 49.7422 109.565 49.229 110.581C48.9699 111.597 47.9437 112.105 46.6583 112.105Z" fill="#386641"/>
<path d="M70.5563 65.1117C62.0746 65.1117 54.3676 68.922 49.2288 75.7805C45.6319 80.3529 43.8335 85.9413 43.8335 91.7837C43.8335 97.6262 45.6319 102.961 49.2288 107.787C54.3676 114.645 62.0746 118.456 70.5563 118.456C79.0354 118.456 86.7449 114.645 91.8837 107.787C95.4831 103.215 97.2816 97.6262 97.2816 91.7837C97.2816 85.9413 95.4831 80.6069 91.8837 75.7805C86.7449 68.922 79.0354 65.1117 70.5563 65.1117ZM70.5563 124.044C60.2761 124.044 50.5117 119.218 44.3467 111.089C39.9775 105.501 37.9199 98.6423 37.9199 91.7837C37.9199 84.6712 40.2366 78.0667 44.3467 72.4783C50.5117 64.3497 60.0221 59.5233 70.5563 59.5233C81.093 59.5233 90.5983 64.3497 96.7634 72.4783C101.135 78.0667 103.19 84.9252 103.19 91.7837C103.19 98.8963 100.878 105.501 96.7634 111.089C90.5983 119.218 80.8339 124.044 70.5563 124.044Z" fill="#386641"/>
<path d="M70.5565 79.8452C66.7005 79.8452 63.3602 81.6233 61.0487 84.6716C59.5042 86.7037 58.7371 89.2439 58.7371 91.7841C58.7371 94.3243 59.5042 96.8645 61.0487 98.8966C63.3602 101.945 66.7005 103.723 70.5565 103.723C74.41 103.723 77.7503 101.945 80.0619 98.8966C81.6063 96.8645 82.3761 94.3243 82.3761 91.7841C82.3761 89.2439 81.6063 86.7037 80.0619 84.6716C77.7503 81.6233 74.41 79.8452 70.5565 79.8452ZM70.5565 109.311C64.9021 109.311 59.7633 106.771 56.1664 102.199C53.8548 99.1506 52.5694 95.3404 52.5694 91.5301C52.5694 87.7198 53.8548 83.9095 56.1664 80.8613C59.5042 76.2889 64.9021 73.7487 70.5565 73.7487C76.211 73.7487 81.3472 76.2889 84.9467 80.8613C87.2582 83.9095 88.5436 87.7198 88.5436 91.5301C88.5436 95.3404 87.2582 99.1506 84.9467 102.199C81.3472 106.771 76.211 109.311 70.5565 109.311Z" fill="#386641"/>
</svg>
