<svg width="432" height="297" viewBox="0 0 432 297" fill="none" xmlns="http://www.w3.org/2000/svg">
<path d="M385.652 167.74C367.751 176.755 349.794 185.693 332.264 195.419C325.161 199.361 318.084 203.41 311.321 207.922C310.251 205.298 309.482 202.398 308.953 199.508C309.819 199.467 310.683 199.362 311.541 199.156C312.848 198.843 314.179 198.297 315.29 197.539C317.005 196.369 317.866 195.016 317.44 192.909C317.338 192.4 317.05 192.019 316.676 191.739C317.028 190.834 317.359 189.921 317.644 188.993C318.447 186.371 318.951 183.683 319.275 180.964C319.828 176.316 319.948 170.945 318.218 166.517C317.324 164.228 315.807 162.085 313.525 161.016C312.528 160.548 311.482 160.31 310.432 160.264C310.842 159.992 311.247 159.709 311.659 159.445C312.881 158.656 314.124 157.898 315.377 157.161C318.223 155.489 321.132 153.927 324.074 152.432C338.919 144.889 354.593 138.82 370.534 134.039C379.553 131.334 388.728 129.061 398.043 127.655C398.199 127.632 398.338 127.572 398.469 127.499C398.618 127.815 398.763 128.133 398.914 128.449C399.317 129.288 399.715 130.161 400.251 130.927C400.354 131.073 400.471 131.209 400.591 131.338C399.693 133.108 398.907 134.935 398.251 136.804C398.006 136.638 397.762 136.473 397.517 136.3C396.59 135.644 395.179 136.045 394.544 136.894C393.855 137.816 393.909 139.078 394.724 139.921C395.384 140.604 395.973 141.318 396.684 141.962C397.355 142.57 398.035 143.17 398.714 143.77C400.072 144.965 401.463 146.125 402.928 147.189C405.74 149.236 409.068 150.846 412.599 150.958C413.878 150.999 415.096 150.018 415.452 148.797C416.589 149.464 417.774 150.041 419.002 150.509C415.921 152.217 412.801 153.858 409.686 155.489C401.718 159.658 393.683 163.696 385.652 167.74ZM288.319 204.044C274.749 201.231 261.135 198.627 247.517 196.055C230.983 192.931 214.434 189.886 197.88 186.865C181.465 183.87 165.044 180.902 148.624 177.93C135.872 175.621 123.12 173.317 110.376 170.958C113.118 168.146 115.98 165.45 118.608 162.528C118.778 162.774 118.948 163.019 119.121 163.262C119.017 163.368 118.917 163.475 118.835 163.602C118.558 163.947 118.526 163.997 118.736 163.751C117.623 164.846 117.877 166.799 119.228 167.575C118.964 167.387 119.009 167.426 119.362 167.692C119.646 167.952 119.978 168.127 120.361 168.217C120.775 168.312 121.232 168.344 121.656 168.341C122.447 168.336 123.237 168.193 124.018 168.064C125.215 167.866 126.405 167.631 127.587 167.361C130.033 166.804 132.453 166.124 134.738 165.077C136.932 164.072 138.824 162.496 140.147 160.473C140.9 159.323 141.463 157.979 141.544 156.602C141.589 155.828 141.477 155.006 141.113 154.316C140.976 154.12 140.873 153.977 140.797 153.876C140.776 153.828 140.755 153.782 140.729 153.725C140.491 153.319 140.127 153.056 139.753 152.781C138.981 152.213 137.967 152.518 137.272 153.026C136.781 150.821 136.166 148.623 135.653 146.448C135.314 145.013 134.981 143.576 134.622 142.144C136.283 138.846 137.942 135.547 139.565 132.23C152.583 131.128 165.748 131.899 178.74 133.153C179.305 135.216 180.183 137.165 181.543 138.844C185.112 143.251 191.424 144.562 196.728 145.415C203.519 146.507 210.263 147.822 217.035 149.031C225.357 150.517 233.709 151.84 242.098 152.885C246.229 153.4 250.368 153.84 254.517 154.185C258.422 154.51 262.404 154.932 266.326 154.826C270.123 154.722 273.858 153.639 276.488 150.754C276.919 150.28 277.309 149.774 277.681 149.257C287.207 152.089 296.564 155.491 305.594 159.648C305.544 160.253 305.496 160.86 305.449 161.467C300.816 163.966 298.655 169.682 296.781 174.278C295.68 176.979 294.734 179.743 293.942 182.55C293.599 183.769 293.288 184.995 293.032 186.235C292.794 186.221 292.549 186.234 292.297 186.304C291.083 186.638 290.34 187.95 290.673 189.166C290.994 190.335 291.281 191.541 291.967 192.564C292.766 193.752 293.749 194.691 294.89 195.541C297.199 197.26 299.911 198.146 302.681 198.804C303.573 199.016 304.476 199.19 305.384 199.319C305.891 202.42 306.67 205.443 307.773 208.376C301.399 206.555 294.771 205.382 288.319 204.044ZM113.228 132.452C113.259 132.229 113.409 131.519 113.525 131.105C113.688 130.526 113.817 130.179 113.972 129.879C114.148 129.535 114.54 128.892 114.649 128.757C114.845 128.514 115.268 128.116 115.534 127.962C116.349 127.487 116.882 127.372 117.801 127.396C118.539 127.414 119.457 127.669 120.265 128.131C121.993 129.117 123.278 130.674 124.376 132.492C125.703 134.688 126.615 137.028 127.374 139.473C128.254 142.317 128.912 145.224 129.592 148.119C130.347 151.337 130.902 154.706 131.956 157.836C132.112 158.299 132.368 158.707 132.682 159.052C132.361 159.235 132.036 159.411 131.703 159.575C131.653 159.599 131.624 159.613 131.602 159.625C131.601 159.626 131.601 159.626 131.6 159.626C131.361 159.724 131.117 159.814 130.875 159.901C129.044 160.554 127.141 161.046 125.248 161.48C124.904 161.559 124.553 161.617 124.207 161.69C124.152 161.556 124.089 161.423 124.003 161.299C121.045 157.08 118.636 152.501 116.707 147.723C115.68 145.179 114.773 142.586 114.065 139.932C113.425 137.527 112.912 134.761 113.228 132.452ZM241.6 146.744C240.146 133.136 239.283 119.44 239.453 105.75C239.628 91.584 240.548 77.4259 241.647 63.3056C241.955 59.3587 242.276 55.4127 242.6 51.4667C242.931 47.4599 243.475 43.371 243.446 39.3467C243.525 39.3559 243.596 39.3642 243.641 39.3688C244.671 39.5173 245.697 39.7155 246.706 39.9682C247.76 40.2319 248.8 40.5519 249.819 40.9263C250.053 41.0121 250.286 41.1006 250.517 41.1919C250.626 41.2353 250.735 41.2795 250.844 41.3247C251.328 41.5423 251.811 41.7618 252.285 41.9988C253.286 42.4986 254.26 43.0519 255.203 43.6513C255.66 43.9418 256.109 44.2434 256.553 44.5551C256.757 44.6999 256.961 44.8465 257.163 44.995C257.263 45.0687 257.363 45.1453 257.464 45.219C259.237 46.63 260.886 48.182 262.403 49.865C262.756 50.256 263.102 50.6534 263.441 51.0564C263.641 51.2943 263.837 51.5332 264.033 51.7748C264.097 51.855 264.303 52.1141 264.382 52.2128C265.072 53.111 265.728 54.0359 266.356 54.9784C267.734 57.0486 268.971 59.2112 270.088 61.4327C270.678 62.6038 271.233 63.7925 271.757 64.995C271.795 65.0789 271.939 65.4192 271.966 65.481C272.065 65.7134 272.16 65.9476 272.255 66.1818C272.517 66.8301 272.771 67.4812 273.016 68.135C274.927 73.2337 276.346 78.5131 277.371 83.8589C277.634 85.2256 277.87 86.5968 278.081 87.9727C278.138 88.3453 278.194 88.7178 278.247 89.0913C278.258 89.1688 278.31 89.5423 278.325 89.6501C278.42 90.3731 278.509 91.0961 278.592 91.8209C278.908 94.6299 279.124 97.4508 279.241 100.274C279.36 103.103 279.378 105.934 279.304 108.763C279.119 115.54 278.978 122.438 277.996 129.115C277.495 132.531 276.795 135.928 275.741 139.219C274.854 141.995 273.751 145.007 271.718 146.96C270.856 147.788 269.665 148.311 268.285 148.583C267.057 148.826 265.364 148.787 263.9 148.727C259.938 148.565 255.978 148.265 252.03 147.901C248.546 147.579 245.071 147.184 241.6 146.744ZM220.227 126.112C218.923 131.153 217.468 136.143 216.012 141.137C214.964 140.188 213.943 139.208 212.957 138.196C211.471 136.671 210.051 135.077 208.716 133.416C215.745 125.463 220.889 116.324 224.847 106.601C223.424 113.131 221.9 119.64 220.227 126.112ZM189.962 137.511C189.935 137.497 189.892 137.476 189.798 137.432C189.495 137.292 189.195 137.15 188.899 136.996C188.364 136.717 187.863 136.392 187.354 136.066C187.345 136.06 187.299 136.027 187.252 135.992C187.172 135.926 187.045 135.821 187.014 135.794C186.817 135.616 186.623 135.437 186.437 135.246C186.384 135.192 186.18 134.964 186.083 134.859C186.009 134.747 185.802 134.458 185.76 134.394C185.543 134.047 185.365 133.684 185.178 133.32C185.154 133.274 185.141 133.252 185.125 133.222C185.12 133.202 185.118 133.192 185.108 133.163C185.027 132.917 184.931 132.678 184.851 132.432C184.531 131.446 184.324 130.437 184.144 129.419C184.124 129.304 184.111 129.244 184.103 129.201C184.101 129.172 184.098 129.14 184.092 129.085C184.063 128.823 184.032 128.563 184.007 128.301C183.947 127.67 183.905 127.037 183.875 126.404C183.82 125.164 183.817 123.922 183.851 122.68C183.924 119.998 184.165 117.322 184.491 114.659C184.529 114.355 184.568 114.05 184.608 113.745C184.613 113.709 184.615 113.685 184.619 113.663C184.634 113.554 184.649 113.445 184.664 113.337C184.764 112.635 184.868 111.934 184.977 111.234C185.173 109.973 185.385 108.713 185.609 107.456C186.016 105.18 186.464 102.911 186.927 100.646C187.977 95.4995 189.097 90.3879 190.671 85.3713C192.478 79.6151 194.484 74.6354 197.282 69.3578C198.61 66.8541 200.062 64.4149 201.648 62.0662C203.309 59.6049 204.6 57.9164 206.543 55.7134C210.254 51.5073 214.058 48.2069 218.657 45.4293C219.86 44.7026 221.094 44.0267 222.355 43.407C222.919 43.1303 223.489 42.8638 224.063 42.6093C224.683 42.3345 224.859 42.2635 225.679 41.9509C228.275 40.9614 230.962 40.1886 233.694 39.6805C233.985 39.627 234.275 39.5753 234.565 39.5283C234.666 39.5117 235.09 39.4472 235.196 39.4297C235.261 39.4204 235.326 39.4112 235.336 39.4103C235.386 39.4048 235.437 39.3992 235.487 39.3928C234.827 41.8753 234.445 44.4822 233.925 46.9454C233.176 50.4957 232.427 54.046 231.678 57.5955C230.242 64.3937 228.787 71.1865 227.15 77.9395C224.067 90.6701 220.272 103.299 214.004 114.802C210.775 120.725 207.033 126.155 202.42 131.013C201.549 131.93 201.099 133.699 201.93 134.815C203.529 136.962 205.211 139.043 207.01 141.02C206.341 140.892 205.673 140.766 205.004 140.638C200.013 139.679 194.976 139.266 190.151 137.574C190.037 137.534 189.987 137.518 189.962 137.511ZM153.73 99.9471C159.989 85.9836 167.198 72.424 175.548 59.5957C183.452 47.4535 192.525 35.9623 203.467 26.4067C214.372 16.8816 227.528 10.3204 241.962 8.52217C244.657 8.18742 247.361 7.95414 250.068 7.73927C259.604 7.61017 268.714 10.4707 276.361 16.2408C284.194 22.1491 289.952 30.5003 294.281 39.2056C298.995 48.6836 302.122 58.929 304.244 69.2794C307.132 83.3692 308.232 97.8224 308.359 112.187C308.487 126.808 307.144 141.301 305.907 155.846C297.354 152 288.537 148.774 279.559 146.064C280.318 144.49 280.929 142.836 281.47 141.194C283.781 134.171 284.553 126.668 284.973 119.32C285.174 115.804 285.271 112.283 285.367 108.763C285.678 96.8228 284.369 84.6963 281.064 73.2023C278.099 62.8906 273.425 52.6729 265.981 44.8077C259.116 37.553 249.839 33.0814 239.777 33.0704C228.019 33.0575 216.598 38.2834 207.823 45.8895C198.577 53.904 192.133 64.6916 187.61 75.9495C183.524 86.1173 181.251 96.9289 179.44 107.708C178.498 113.313 177.718 119.019 177.768 124.714C177.782 126.275 177.852 127.889 178.043 129.49C165.703 128.368 153.373 127.858 141.053 129.14C142.226 126.695 143.381 124.242 144.486 121.764C147.706 114.55 150.497 107.157 153.73 99.9471ZM310.798 166.37C310.942 166.436 311.095 166.531 311.233 166.626C311.249 166.641 311.278 166.67 311.335 166.722C311.361 166.747 311.502 166.903 311.587 166.993C311.656 167.096 311.786 167.282 311.806 167.313C311.914 167.492 312.017 167.676 312.112 167.863C312.154 167.947 312.279 168.246 312.296 168.278C312.986 170.101 313.094 171.39 313.206 173.158C313.348 175.418 313.321 177.686 313.101 179.942C312.885 182.184 312.401 184.51 311.754 186.734C311.414 187.903 311.022 189.056 310.577 190.189C310.203 191.142 309.565 192.145 309.351 193.189C309.328 193.192 309.305 193.199 309.282 193.203C309.213 193.21 309.072 193.227 309.01 193.229C308.443 193.254 307.879 193.271 307.311 193.243C306.232 193.19 305.183 192.976 304.131 192.732C302.225 192.291 300.088 191.893 298.352 190.965C298.095 190.829 297.889 190.704 297.697 190.58C297.838 190.101 297.955 189.613 298.082 189.131C298.366 188.049 298.664 186.97 298.959 185.89C299.564 183.671 300.266 181.478 301.063 179.32C301.791 177.35 302.606 175.419 303.512 173.525C304.374 171.722 305.264 169.767 306.581 168.247C307.661 167.001 308.913 166.182 310.254 166.252C310.186 166.28 311.016 166.469 310.798 166.37ZM286.705 8.17361C300.143 10.5777 313.439 14.9562 325.37 21.6428C347.455 34.0211 364.375 53.8625 376.117 76.0601C378.494 80.5538 380.629 85.1555 382.639 89.8226C384.556 94.2702 386.363 98.6579 388.32 103.405C391.172 110.334 393.885 117.363 396.955 124.21C383.745 126.215 370.79 129.894 358.177 134.256C345.913 138.498 333.833 143.443 322.259 149.324C317.837 151.57 313.473 153.973 309.324 156.699C310.433 143.449 311.765 130.225 311.855 116.908C311.958 101.706 310.97 86.4364 308.217 71.4705C306.235 60.693 303.156 50.0706 298.57 40.1028C294.317 30.8608 288.579 21.9933 280.784 15.3472C276.172 11.4141 270.937 8.43365 265.307 6.55058C272.469 6.30805 279.653 6.913 286.705 8.17361ZM414.666 122.818C415.256 122.286 415.739 121.929 416.477 121.532C416.916 121.295 416.842 121.355 417.218 121.234C417.212 121.235 417.319 121.21 417.414 121.186C417.429 121.203 417.758 121.176 417.689 121.149C417.813 121.171 417.909 121.205 417.96 121.228C417.974 121.276 418.376 121.688 418.347 121.604C418.508 121.858 418.73 122.298 418.735 122.311C418.704 122.231 418.979 123.261 418.963 123.165C419.218 124.659 418.588 126.729 418.005 128.349C417.33 130.224 416.567 132.067 415.746 133.881C414.818 135.93 413.817 137.946 412.744 139.923C411.864 141.543 410.862 143.095 409.933 144.684C409.589 144.586 409.249 144.475 408.913 144.35C408.901 144.345 408.898 144.344 408.887 144.34C408.872 144.333 408.867 144.329 408.848 144.319C408.65 144.218 408.444 144.131 408.245 144.031C407.923 143.869 407.606 143.699 407.293 143.52C406.617 143.134 405.963 142.712 405.323 142.267C404.419 141.64 403.791 141.157 403.058 140.562C405.668 133.883 409.356 127.607 414.666 122.818ZM428.067 145.69C424.475 145.856 421.196 144.919 418.18 143.086C419.349 140.927 420.434 138.721 421.431 136.475C423.457 131.916 426.079 126.695 425.018 121.572C424.551 119.315 423.236 117.103 421.237 115.891C418.91 114.477 416.175 114.752 413.803 115.867C411.763 116.826 410.053 118.464 408.514 120.08C406.951 121.719 405.52 123.483 404.211 125.33C404.176 125.38 404.142 125.431 404.107 125.481C403.336 123.913 402.704 122.241 402.032 120.692C401.012 118.34 400.493 117.099 399.557 114.856C398.566 112.478 397.583 110.097 396.602 107.714C392.803 98.4855 389.161 89.1522 384.91 80.1186C373.809 56.5239 357.199 35.0309 335.292 20.586C323.849 13.0418 311.009 7.77709 297.757 4.38073C290.351 2.4829 282.759 1.19184 275.129 0.668049C267.565 0.149789 260.174 0.885699 252.642 1.47036C244.559 2.09743 236.366 2.71711 228.588 5.16363C221.572 7.37131 214.876 10.6635 208.766 14.7496C196.354 23.0501 186.174 34.3909 177.363 46.3423C168.268 58.68 160.511 72.0395 153.726 85.7706C146.62 100.155 141.164 115.249 134.099 129.648C133.412 131.047 132.716 132.442 132.02 133.836C130.245 129.448 127.662 125.212 123.576 122.804C120.957 121.26 117.675 120.657 114.724 121.527C111.795 122.391 109.506 124.591 108.278 127.355C105.58 133.428 107.62 139.932 109.812 145.824C111.314 149.861 113.166 153.716 115.326 157.404C111.064 162.026 106.152 166.011 102.052 170.796C100.653 172.43 100.941 175.547 103.432 176.026C124.761 180.127 146.167 183.844 167.538 187.716C193.344 192.392 219.149 197.079 244.921 201.943C263.823 205.511 282.803 208.939 301.529 213.358C303.836 213.903 306.147 214.458 308.418 215.14C309.024 215.323 309.629 215.574 310.273 215.574C311.783 215.574 313.157 214.244 314.354 213.447C316.662 211.911 319.008 210.433 321.376 208.989C332.778 202.035 344.604 195.775 356.453 189.626C369.188 183.019 382.025 176.614 394.832 170.147C404.922 165.054 415.074 160.018 424.888 154.404C426.496 153.486 428.09 152.544 429.655 151.556C432.172 149.97 431.32 145.54 428.067 145.69Z" fill="#386641"/>
<path d="M191.943 103.112C192.632 101.21 193.054 99.2047 193.623 97.2636C194.191 95.3242 194.791 93.3932 195.434 91.4769C196.718 87.6555 198.185 83.8958 199.846 80.2237C203.125 72.9819 207.15 66.1873 211.659 59.6491C212.64 58.2253 210.379 56.9905 209.376 58.3148C204.486 64.7736 200.465 71.9555 197.163 79.3458C195.502 83.0658 194.011 86.8633 192.713 90.7254C191.412 94.5994 190.009 98.7141 189.56 102.789C189.401 104.231 191.51 104.312 191.943 103.112Z" fill="#386641"/>
<path d="M190.446 111.874C190.485 111.708 190.52 111.543 190.547 111.375C190.573 111.205 190.6 111.036 190.626 110.868C190.638 110.791 190.65 110.713 190.662 110.636C190.677 110.541 190.69 110.447 190.704 110.351C190.724 110.278 190.731 110.204 190.725 110.13C190.724 110.12 190.722 110.11 190.721 110.1C190.776 109.926 190.784 109.752 190.744 109.578C190.736 109.403 190.684 109.24 190.589 109.09C190.429 108.817 190.117 108.557 189.802 108.485C189.467 108.408 189.089 108.425 188.79 108.617C188.513 108.796 188.255 109.069 188.186 109.403C188.166 109.499 188.148 109.599 188.122 109.694C188.009 110.003 187.962 110.345 187.895 110.665C187.838 110.93 187.807 111.2 187.772 111.47C187.76 111.553 187.749 111.637 187.743 111.72C187.719 112.097 187.862 112.515 188.149 112.767C188.311 112.929 188.503 113.04 188.723 113.102C188.954 113.165 189.184 113.165 189.415 113.102C189.654 113.011 189.837 112.921 190.023 112.751C190.21 112.579 190.304 112.355 190.38 112.12C190.406 112.039 190.427 111.957 190.446 111.874Z" fill="#386641"/>
<path d="M299.959 109.08C299.823 111.128 302.883 111.052 303.103 109.08C304.869 93.136 302.834 76.7647 297.83 61.5507C297.14 59.4537 293.815 60.3491 294.507 62.4673C299.414 77.5098 300.996 93.3204 299.959 109.08Z" fill="#386641"/>
<path d="M161.527 104.095C163.934 97.4056 167.022 90.9062 170.235 84.5699C173.409 78.3065 176.836 72.1206 180.659 66.2307C181.579 64.8115 179.376 63.5859 178.42 64.9221C174.233 70.7816 170.422 76.8283 167.151 83.2485C163.842 89.7442 161.252 96.489 158.787 103.339C158.167 105.063 160.911 105.807 161.527 104.095Z" fill="#386641"/>
<path d="M372.644 91.358C373.48 93.1387 376.57 91.8689 375.853 90.0043C373.174 83.0446 369.712 76.4133 365.757 70.0964C361.89 63.9188 357.188 58.1515 352.402 52.6665C351.067 51.1375 348.856 53.3683 350.179 54.8908C359.563 65.6949 366.584 78.4559 372.644 91.358Z" fill="#386641"/>
<path d="M283.244 190.84C267.806 187.604 252.318 184.601 236.816 181.685C221.397 178.784 205.957 176.002 190.497 173.338C181.718 171.826 172.927 170.383 164.133 168.964C163.212 168.816 162.297 169.204 162.022 170.164C161.788 170.98 162.307 172.129 163.221 172.277C178.783 174.788 194.33 177.401 209.857 180.119C225.321 182.825 240.764 185.65 256.184 188.592C264.949 190.264 273.706 191.971 282.465 193.67C284.303 194.027 285.1 191.229 283.244 190.84Z" fill="#386641"/>
<path d="M118.039 140.045C118.74 139.749 119.078 139.012 118.908 138.275C118.743 137.561 118.603 136.84 118.494 136.116C118.371 135.083 118.367 134.042 118.5 133.009C118.48 133.155 118.461 133.303 118.441 133.449C118.446 133.414 118.45 133.38 118.455 133.346C118.519 132.878 118.512 132.491 118.288 132.068C118.048 131.613 117.57 131.342 117.077 131.277C116.621 131.215 116.218 131.32 115.853 131.603C115.407 131.947 115.267 132.362 115.2 132.905C114.928 135.111 115.191 137.424 116.167 139.431C116.492 140.101 117.4 140.314 118.039 140.045Z" fill="#386641"/>
<path d="M118.444 142.581C118.308 142.669 118.2 142.787 118.12 142.934C118.078 143.035 118.037 143.134 117.993 143.234C117.934 143.457 117.934 143.68 117.993 143.902C118.014 143.998 118.035 144.093 118.054 144.188C118.116 144.407 118.226 144.597 118.387 144.758C118.473 144.826 118.56 144.892 118.647 144.959C118.849 145.076 119.065 145.134 119.298 145.135C119.475 145.143 119.641 145.105 119.794 145.025C119.955 144.972 120.093 144.884 120.209 144.758C120.335 144.641 120.425 144.502 120.475 144.343C120.556 144.189 120.593 144.023 120.587 143.846C120.586 143.613 120.528 143.395 120.411 143.194C120.371 143.107 120.331 143.021 120.29 142.934C120.211 142.787 120.103 142.669 119.967 142.581C119.846 142.47 119.703 142.395 119.54 142.356C119.428 142.341 119.317 142.326 119.205 142.311C119.032 142.305 118.871 142.341 118.721 142.42C118.614 142.449 118.522 142.503 118.444 142.581Z" fill="#386641"/>
<path d="M309.017 170.061C308.469 169.638 307.79 169.732 307.28 170.165C306.396 170.915 305.691 171.897 305.135 172.912C304.561 173.96 304.132 175.111 303.856 176.273C303.679 177.021 304.091 177.905 304.884 178.086C305.635 178.257 306.514 177.86 306.697 177.056C306.816 176.537 306.964 176.025 307.146 175.525C307.189 175.407 307.233 175.291 307.279 175.176C307.303 175.118 307.328 175.061 307.35 175.004C307.338 175.033 307.331 175.052 307.323 175.075C307.326 175.067 307.329 175.06 307.332 175.053C307.439 174.814 307.556 174.579 307.676 174.345C307.904 173.895 308.159 173.459 308.443 173.041C308.518 172.929 308.597 172.817 308.677 172.706C308.713 172.659 308.754 172.612 308.785 172.562C308.749 172.609 308.713 172.657 308.675 172.704C308.749 172.609 308.822 172.514 308.896 172.419C309.053 172.204 309.196 171.98 309.357 171.768C309.542 171.521 309.582 171.031 309.49 170.748C309.4 170.469 309.25 170.241 309.017 170.061Z" fill="#386641"/>
<path d="M307.323 175.075C307.234 175.309 307.287 175.162 307.323 175.075V175.075Z" fill="#386641"/>
<path d="M304.735 180.602C304.652 180.448 304.539 180.325 304.396 180.233C304.268 180.116 304.12 180.038 303.95 179.997C303.833 179.981 303.715 179.966 303.599 179.95C303.362 179.951 303.14 180.01 302.935 180.13C302.845 180.198 302.758 180.267 302.669 180.335C302.505 180.5 302.393 180.693 302.33 180.916C302.305 181.054 302.28 181.192 302.256 181.33C302.202 181.5 302.194 181.671 302.233 181.841C302.24 182.012 302.292 182.172 302.385 182.318C302.465 182.468 302.575 182.588 302.716 182.679C302.839 182.792 302.985 182.869 303.151 182.908C303.265 182.923 303.378 182.939 303.492 182.954C303.724 182.954 303.939 182.894 304.14 182.779C304.226 182.712 304.313 182.645 304.399 182.578C304.558 182.419 304.668 182.23 304.729 182.012C304.775 181.88 304.821 181.748 304.868 181.616C304.922 181.441 304.93 181.266 304.891 181.091C304.883 180.916 304.832 180.753 304.735 180.602Z" fill="#386641"/>
<path d="M413.06 129.583C413.443 129.566 413.863 129.441 414.125 129.142C414.453 128.767 414.781 128.392 415.109 128.017C415.344 127.749 415.565 127.475 415.782 127.191C415.934 126.993 416.099 126.805 416.203 126.578C416.249 126.471 416.294 126.363 416.34 126.255C416.396 126.075 416.405 125.894 416.364 125.714C416.363 125.592 416.333 125.478 416.272 125.372C416.217 125.204 416.124 125.059 415.992 124.936C415.818 124.777 415.618 124.659 415.394 124.587C415.069 124.481 414.639 124.553 414.349 124.724C414.046 124.903 413.798 125.143 413.544 125.381C413.359 125.555 413.186 125.737 413.013 125.922C412.674 126.284 412.335 126.648 411.995 127.011C411.725 127.299 411.553 127.677 411.553 128.076C411.553 128.446 411.718 128.888 411.995 129.142C412.283 129.406 412.659 129.601 413.06 129.583Z" fill="#386641"/>
<path d="M410.003 133.534C411.425 133.534 411.428 131.321 410.003 131.321C408.58 131.321 408.578 133.534 410.003 133.534Z" fill="#386641"/>
<path d="M129.747 247.229C129.558 248.41 129.203 249.542 128.744 250.635C128.693 249.12 128.321 247.469 127.268 246.37C126.031 245.079 124.269 245.229 122.968 246.324C121.717 247.378 121.014 248.981 120.667 250.547C120.281 252.288 120.307 254.086 119.944 255.828C119.566 257.648 118.39 259.055 117.845 260.801C117.342 262.41 117.599 264.476 119.185 265.386C119.859 265.771 120.697 265.859 121.447 265.664C121.418 265.688 121.392 265.714 121.364 265.738C121.332 265.764 121.299 265.788 121.276 265.803C121.109 265.915 120.944 266.031 120.774 266.137C120.478 266.321 120.173 266.491 119.862 266.645C119.717 266.717 119.57 266.784 119.423 266.851C119.417 266.853 119.415 266.855 119.409 266.857C118.73 267.107 118.046 267.328 117.339 267.488C116.978 267.57 116.614 267.631 116.251 267.698C116.21 267.705 116.179 267.711 116.152 267.717C116.131 267.719 116.111 267.721 116.083 267.724C116.009 267.731 115.935 267.739 115.861 267.747C115.482 267.587 115.129 267.34 114.818 267.01C113.948 266.084 113.792 264.844 114.071 263.636C114.754 260.677 117.564 258.683 117.956 255.656C118.158 254.092 117.596 252.539 117.81 250.985C117.976 249.783 118.758 248.76 119.474 247.824C120.255 246.802 121.116 245.839 121.82 244.759C122.585 243.586 122.878 242.171 123.654 241.018C124.448 239.84 126.148 239.733 127.385 240.373C127.48 240.458 127.581 240.536 127.673 240.625C127.917 240.857 128.15 241.1 128.369 241.355C128.421 241.416 128.669 241.752 128.542 241.571C128.575 241.618 128.61 241.664 128.643 241.712C128.831 241.988 129.005 242.275 129.16 242.571C129.211 242.666 129.255 242.763 129.301 242.859C129.252 242.764 129.418 243.138 129.448 243.226C129.553 243.532 129.641 243.843 129.711 244.157C129.735 244.268 129.754 244.379 129.774 244.49C129.771 244.497 129.819 244.806 129.823 244.862C129.887 245.648 129.867 246.474 129.747 247.229ZM126.004 253.825C125.82 253.535 125.522 253.33 125.185 253.237C124.667 253.094 124.106 253.414 123.962 253.932C123.433 255.832 122.897 257.731 122.398 259.64C122.196 260.415 122.255 261.336 122.844 261.859C122.587 262.21 122.314 262.546 122.01 262.864C121.77 262.909 121.542 263.058 121.381 263.351C121.054 263.943 120.151 263.466 119.976 262.957C119.589 261.831 120.39 260.604 120.901 259.664C121.559 258.454 122.039 257.23 122.255 255.863C122.462 254.549 122.491 253.214 122.693 251.9C122.868 250.758 123.183 249.562 123.889 248.623C124.128 248.305 124.634 247.687 125.096 247.699C125.515 247.71 125.788 248.219 125.937 248.554C126.655 250.154 126.452 252.04 126.004 253.825ZM119.516 266.818C119.586 266.791 119.633 266.774 119.516 266.818V266.818ZM110.784 267.697C110.745 267.693 110.714 267.69 110.687 267.688C110.664 267.684 110.641 267.68 110.609 267.675C110.181 267.607 109.752 267.538 109.326 267.453C107.975 267.183 106.622 266.817 105.346 266.292C103.15 265.388 101.165 264.018 99.0877 262.884C96.7437 261.606 94.2824 260.724 91.6911 260.105C89.1109 259.489 86.5282 258.945 84.0002 258.129C82.0079 257.485 80.0683 256.719 78.1723 255.844C79.0675 254.78 79.9199 253.682 80.7056 252.537C83.0535 252.829 85.3935 253.133 87.7255 253.567C90.4515 254.075 93.1477 254.731 95.8525 255.333C96.9522 255.578 97.3731 254.018 96.3156 253.651C93.5936 252.711 90.7879 252.071 87.9578 251.546C85.9628 251.175 83.9375 250.852 81.9096 250.631C83.1261 248.441 84.0094 246.084 85.2055 243.88C86.3949 241.689 87.7691 240.048 89.5477 238.265C92.4161 235.387 95.6697 232.883 98.4333 229.902C100.819 230.925 103.2 231.964 105.609 232.932C107.837 233.826 110.164 234.408 112.494 234.963C115.32 235.636 118.17 236.232 120.941 237.118C121.61 237.332 122.274 237.562 122.93 237.817C123.05 237.864 123.17 237.913 123.291 237.961C123.293 237.962 123.3 237.965 123.315 237.972C122.011 238.654 121.254 239.84 120.679 241.229C120.077 242.681 119.331 243.9 118.35 245.128C117.351 246.383 116.376 247.618 115.8 249.133C115.117 250.931 115.514 252.621 115.596 254.473C115.681 256.404 114.431 257.712 113.479 259.266C112.527 260.821 111.731 262.559 111.641 264.406C111.583 265.609 111.979 266.829 112.66 267.839C112.159 267.819 111.658 267.789 111.16 267.738C111.034 267.725 110.91 267.709 110.784 267.697ZM63.0545 267.456C59.8648 271.766 56.9957 276.264 54.1537 280.806C53.6107 281.674 53.0572 282.536 52.4826 283.385C52.1884 283.818 51.8902 284.247 51.5841 284.671C51.4304 284.884 51.2747 285.096 51.1177 285.306C51.0498 285.397 50.9818 285.486 50.9138 285.577C50.8921 285.605 50.8835 285.616 50.873 285.631C50.8452 285.665 50.8142 285.704 50.7661 285.764C50.1591 286.525 49.5212 287.262 48.847 287.965C49.1445 284.103 45.1342 281.655 42.7519 279.062C41.1139 277.278 40.2088 274.967 38.8003 273.018C37.409 271.091 35.5776 269.517 33.4078 268.527C29.2847 266.646 24.5526 266.671 20.8153 269.383C20.7916 269.401 20.7685 269.42 20.7448 269.437C21.3081 268.43 21.9415 267.439 22.59 266.487C24.1772 264.157 25.8674 261.891 27.5391 259.622C30.9128 255.043 34.4403 250.583 38.3576 246.454C41.9834 242.633 45.842 239.033 49.3055 235.06C51.055 233.053 52.7155 230.95 54.1715 228.718C55.6215 226.497 56.7562 224.125 57.881 221.728C58.9379 219.476 60.0218 217.129 61.6183 215.199C63.2847 213.184 65.3892 211.591 67.4283 209.979C69.4972 208.343 71.4644 206.647 73.0998 204.564C74.7478 202.465 76.1912 200.218 77.7877 198.081C78.8254 196.692 80.0769 195.122 81.4306 193.574C82.8846 191.911 84.4158 190.313 86.0525 188.83C87.7387 187.3 89.1683 186.176 91.1323 184.997C91.9516 184.504 93.0712 183.917 93.7724 183.617C93.9321 183.549 94.5944 183.298 94.9487 183.18C95.4606 183.009 95.9798 182.861 96.5056 182.74C96.7484 182.683 96.9931 182.632 97.2385 182.588C97.3441 182.569 97.449 182.552 97.5539 182.535C97.5783 182.53 97.5875 182.528 97.6027 182.525C97.608 182.525 97.6086 182.525 97.6139 182.524C98.108 182.469 98.6028 182.436 99.0996 182.432C100.327 182.423 100.734 182.471 101.852 182.752C103.842 183.253 105.639 184.216 107.151 185.642C108.004 186.447 108.559 187.11 109.147 188.044C109.777 189.045 110.133 189.795 110.456 190.845C111.133 193.037 111.148 195.344 110.84 197.779C110.574 199.876 109.894 202.378 109.01 204.244C107.775 206.762 106.063 208.912 104.398 211.149C102.641 213.509 101.424 216.014 100.321 218.732C99.4228 220.947 98.3594 223.232 96.9522 225.048C95.6288 226.757 93.8595 228.46 92.1885 229.986C88.6768 233.19 84.9469 236.233 82.3357 240.267C80.823 242.603 79.8882 245.238 78.609 247.698C77.3622 250.096 75.6978 252.179 73.9238 254.202C70.149 258.507 66.4632 262.851 63.0545 267.456ZM33.9818 291.061C31.5382 290.186 29.1989 289.001 26.7303 288.209C25.6464 287.861 24.5473 287.555 23.4806 287.156C23.03 286.987 23.0234 286.999 22.489 286.704C22.3201 286.611 22.1578 286.509 21.9982 286.401C22.0437 286.409 21.6077 286.024 21.5423 285.948C20.8246 285.104 20.2652 283.877 19.7328 282.848C19.362 282.131 19.0143 281.377 18.7643 280.598C18.825 280.47 18.856 280.323 18.8369 280.153C18.4905 277.093 18.9787 273.976 21.514 271.976C22.6289 271.097 23.9364 270.337 25.3179 270.001C27.2567 269.529 29.3427 269.772 31.2123 270.414C33.105 271.063 34.8064 272.228 36.1054 273.748C37.4446 275.314 38.2778 277.248 39.4158 278.953C40.4957 280.571 41.8633 281.84 43.2975 283.132C44.4454 284.167 45.8532 285.356 46.1943 286.945C46.6093 288.877 45.1117 290.557 43.5403 291.438C42.2466 292.163 40.8104 292.442 39.3558 292.644C38.9705 292.609 38.5641 292.536 38.1116 292.411C36.7176 292.026 35.3428 291.549 33.9818 291.061ZM16.2706 262.555C16.0127 262.549 15.7554 262.533 15.4974 262.517C15.6993 262.1 15.8543 261.676 15.9533 261.268C16.613 258.553 15.7158 255.631 15.0772 252.991C14.6016 251.024 14.0382 249.081 13.3224 247.19C13.3738 247.176 13.4253 247.159 13.4774 247.146C13.9702 247.02 14.4683 246.915 14.9697 246.832C16.0351 246.656 17.119 246.621 18.1844 246.443C19.2763 246.262 20.3153 245.901 21.3312 245.47C22.336 245.044 23.3368 244.584 24.1996 243.909C24.9504 243.32 24.1297 242.143 23.3071 242.374C22.272 242.665 21.3207 243.239 20.3239 243.638C19.3877 244.012 18.4147 244.311 17.4145 244.454C16.4171 244.596 15.4084 244.647 14.4129 244.812C13.9115 244.895 13.4134 245 12.9206 245.126C12.7867 245.16 12.6455 245.193 12.503 245.229C12.0452 244.222 11.5339 243.238 10.9415 242.304C10.4573 241.542 9.90245 240.668 9.19789 240.027C9.60097 239.865 10.0331 239.715 10.5833 239.541C11.5082 239.25 12.4476 239.005 13.3897 238.775C15.1808 238.337 16.9943 237.976 18.7571 237.431C21.4427 239.031 24.6179 240.002 27.5193 240.689C28.9436 241.025 30.3811 241.305 31.8219 241.565C33.2818 241.828 34.879 241.959 36.3277 242.397C34.0464 244.776 31.818 247.202 29.728 249.769C26.4486 253.797 23.2965 257.978 20.312 262.245C20.1761 262.249 20.0389 262.263 19.9023 262.289C19.7314 262.322 19.5599 262.353 19.3884 262.381C19.3462 262.388 19.1819 262.41 19.0902 262.423C18.8422 262.451 18.5941 262.479 18.3454 262.498C17.6553 262.552 16.9627 262.571 16.2706 262.555ZM9.2929 260.567C9.37404 260.576 9.45254 260.59 9.53765 260.592C10.7344 260.622 11.6296 259.655 11.8262 258.536C12.0366 257.335 11.7503 256.067 11.5458 254.883C11.1374 252.519 10.6031 250.047 9.41889 247.935C8.83835 246.899 8.03285 245.93 7.01294 245.301C6.51486 244.994 5.84328 244.82 5.24426 244.902C5.23833 244.859 5.23371 244.825 5.23371 244.822C5.22844 244.633 5.23437 244.446 5.2469 244.258C5.25086 244.206 5.25086 244.178 5.24888 244.163C5.25812 244.128 5.26603 244.099 5.27923 244.047C5.35312 243.751 5.42239 243.458 5.5319 243.172C5.49694 243.262 5.38082 243.454 5.58863 243.052C5.6955 242.843 5.80633 242.639 5.93101 242.44C6.16851 242.063 6.16456 242.075 6.47463 241.749C6.55775 241.662 6.63426 241.584 6.70947 241.51C6.72398 241.51 6.73653 241.503 6.7517 241.502C7.68189 241.469 8.31521 242.93 8.73214 243.596C10.0562 245.715 10.9817 248.041 11.7048 250.426C12.4489 252.879 13.1627 255.467 13.5025 258.012C13.6562 259.163 13.6747 260.422 13.1284 261.478C13.0044 261.716 12.8652 261.91 12.7155 262.08C12.6363 262.06 12.5552 262.045 12.4753 262.023C12.1725 261.94 11.871 261.848 11.5742 261.745C11.3974 261.685 11.2239 261.617 11.0484 261.553C11.0094 261.539 10.993 261.533 10.9672 261.524C10.9422 261.511 10.9237 261.501 10.8828 261.481C10.3299 261.204 9.80681 260.907 9.2929 260.567ZM9.55216 258.312C9.54886 258.316 9.55083 258.316 9.54952 258.318C9.54094 258.314 9.52642 258.309 9.49608 258.305C9.13521 258.252 8.82977 257.636 8.68529 257.365C8.17732 256.415 7.88705 255.364 7.64955 254.318C7.56775 253.958 7.49783 253.588 7.4312 253.214C7.54929 252.292 7.58359 251.389 7.40745 250.449C7.19106 249.296 6.64681 248.212 6.1065 247.181C6.08605 247.143 6.06889 247.11 6.04976 247.074C6.12167 247.113 6.1949 247.15 6.25428 247.197C6.63823 247.498 6.97665 247.875 7.25505 248.273C7.82438 249.085 8.21427 250.001 8.52499 250.937C8.90564 252.086 9.20844 253.266 9.41097 254.459C9.59437 255.541 9.7936 256.814 9.65968 257.911C9.64847 258.003 9.63264 258.246 9.55216 258.312ZM17.3895 219.714C17.4337 218.955 17.8137 218.104 18.354 217.365C19.1687 216.249 20.3331 215.395 21.5325 214.631C23.2827 217.469 25.587 219.927 28.3222 221.891C32.9507 225.213 38.7389 226.889 44.3821 227.216C46.2952 227.327 48.2156 227.253 50.1182 227.023C47.6113 230.731 44.5292 234.016 41.3962 237.205C40.786 237.827 40.1751 238.448 39.5656 239.068C39.5649 239.067 39.5636 239.067 39.5629 239.066C36.7611 237.772 33.578 237.566 30.5784 236.952C28.0431 236.432 25.5105 235.792 23.1118 234.806C23.0175 234.762 22.6487 234.601 22.5728 234.566C22.3162 234.445 22.0622 234.321 21.8109 234.191C21.2125 233.88 20.6293 233.54 20.0732 233.159C19.9498 233.074 19.8291 232.987 19.707 232.9C19.6879 232.886 19.6826 232.883 19.6707 232.875C19.6628 232.869 19.6609 232.867 19.6516 232.859C19.4293 232.671 19.207 232.485 18.9959 232.285C18.7881 232.088 18.5882 231.884 18.3982 231.671C18.3223 231.587 18.2511 231.498 18.1765 231.413C18.158 231.393 18.1514 231.385 18.1382 231.371C18.127 231.354 18.1211 231.342 18.1026 231.314C17.9509 231.078 17.7919 230.849 17.654 230.604C17.6019 230.512 17.406 230.078 17.3802 230.048C17.2998 229.831 17.2206 229.615 17.1599 229.392C17.1289 229.28 17.1005 229.167 17.0748 229.052C17.059 228.983 17.0187 228.663 17.0016 228.571C16.9184 226.676 17.7734 224.873 17.6956 222.96C17.652 221.877 17.3268 220.803 17.3895 219.714ZM57.1078 214.199C53.7262 213.736 50.4857 213.127 47.3455 211.668C44.3781 210.289 41.2181 208.803 38.8504 206.49C33.074 200.847 37.2684 192.565 37.6959 185.772C37.8206 183.786 37.719 181.779 37.9862 179.803C38.0733 179.161 38.1769 178.434 38.539 177.878C38.6591 177.694 38.7726 177.629 38.9289 177.491C39.0246 177.407 38.9791 177.442 39.0866 177.495C38.9355 177.421 39.2601 177.654 39.1222 177.512C39.2067 177.6 39.4336 177.829 39.4356 177.831C39.6144 178.06 39.8921 178.585 40.0531 178.953C40.4568 179.874 40.7365 180.917 40.9951 181.909C41.5328 183.968 41.9022 185.867 43.1814 187.628C44.8736 189.958 48.4868 192.898 51.4766 190.949C54.3272 189.091 53.1674 184.686 51.848 182.256C51.2872 181.224 48.5356 176.45 51.4251 176.414C52.7452 176.398 54.0046 177.164 55.3372 177.231C56.7767 177.305 58.1093 176.594 59.1226 175.611C61.3273 173.471 62.0952 170.212 61.5602 167.255C60.9104 163.662 58.6621 160.614 57.2028 157.336C56.5372 155.84 55.7363 153.809 56.0259 152.133C56.0279 152.122 56.0371 152.092 56.0484 152.059C56.241 152.24 56.6909 152.555 56.7905 152.648C57.4146 153.226 58.007 153.838 58.5684 154.477C62.683 159.156 65.0039 165.101 69.1442 169.766C70.9782 171.832 73.9746 174.978 77.0713 174.115C78.3485 173.759 79.1309 172.66 79.3242 171.395C79.4046 170.871 79.4205 170.347 79.4403 169.818C79.4574 169.351 79.4574 169.016 79.5636 168.727C79.559 168.741 79.683 168.589 79.6731 168.566C79.7701 168.508 79.8737 168.471 80.038 168.45C80.3705 168.406 80.6192 168.487 80.728 168.573C81.3673 169.077 81.6747 170.055 81.9109 170.91C82.1853 171.9 82.3496 172.914 82.593 173.911C82.9123 175.213 83.5707 176.418 84.2779 177.548C85.1751 178.981 86.1851 180.34 86.9576 181.85C87.0685 182.068 87.2136 182.219 87.3733 182.325C84.739 184.119 82.3357 186.292 80.2807 188.446C77.0422 191.841 74.2259 195.596 71.5469 199.44C69.986 201.681 68.2998 203.689 66.2046 205.454C64.1351 207.198 61.9013 208.752 59.9637 210.65C58.8495 211.741 57.9259 212.94 57.1078 214.199ZM21.8267 196.083C21.8795 195.066 21.9731 194.052 22.0985 193.042C22.1123 192.951 22.1697 192.529 22.1796 192.464C22.2185 192.212 22.2594 191.961 22.3023 191.71C22.3934 191.172 22.495 190.637 22.6058 190.102C24.604 180.494 30.1542 171.489 29.7531 161.429C29.6488 158.808 29.0848 156.289 28.0088 153.898C27.5167 152.805 26.8972 151.779 26.1781 150.82C25.339 149.702 24.2339 148.686 23.4357 147.613C23.059 147.107 22.9244 146.868 22.8011 146.447C22.7813 146.379 22.7701 146.268 22.739 146.198C22.7423 146.134 22.7364 146.055 22.7325 146.004C22.7338 146.002 22.7338 146.003 22.7351 146.001C22.7542 145.972 22.7615 145.957 22.7668 145.945C22.7852 145.927 22.7971 145.915 22.8228 145.889C22.8466 145.864 22.8763 145.841 22.9053 145.818C22.9699 145.795 23.1877 145.67 23.2873 145.605C23.3948 145.563 23.5479 145.503 23.6039 145.486C23.7966 145.428 23.9918 145.387 24.1871 145.339C24.2518 145.323 24.2946 145.312 24.3276 145.303C24.3428 145.302 24.3494 145.302 24.3712 145.301C24.639 145.282 24.9029 145.261 25.1721 145.26C25.3792 145.258 25.5863 145.265 25.7928 145.28C25.8614 145.284 25.9294 145.291 25.998 145.298C26.5245 145.439 27.0502 145.542 27.5681 145.724C28.1025 145.913 28.1638 145.942 28.7589 146.259C29.3117 146.554 29.8454 146.888 30.3488 147.261C30.3626 147.271 30.3633 147.272 30.3745 147.28C30.4906 147.373 30.6041 147.469 30.7169 147.567C30.9234 147.746 31.1239 147.931 31.3192 148.122C31.5138 148.313 31.7032 148.509 31.8866 148.711C31.9908 148.827 32.0897 148.946 32.1933 149.063C32.2237 149.098 32.2863 149.173 32.3154 149.207C32.6564 149.648 32.9599 150.125 33.235 150.609C33.3683 150.844 33.4949 151.084 33.613 151.327C33.6711 151.445 33.7265 151.566 33.7799 151.686C33.7971 151.729 33.8274 151.804 33.8439 151.849C34.0379 152.394 34.212 152.941 34.3367 153.506C34.3921 153.757 34.4416 154.009 34.4772 154.262C34.4792 154.297 34.4812 154.337 34.4845 154.39C34.4937 154.543 34.5076 154.697 34.5148 154.852C34.6448 157.702 34.1632 160.812 36.4959 162.973C38.1927 164.546 40.7161 164.863 42.8516 164.086C45.2001 163.232 47.0856 161.404 47.7103 158.939C48.469 155.941 47.5395 152.784 46.3678 150.026C44.3484 145.273 40.7887 141.169 38.8452 136.497C38.5219 135.721 38.1848 134.687 37.9466 133.78C37.8285 133.327 37.7236 132.872 37.6326 132.413C37.5858 132.182 37.5429 131.95 37.5033 131.717C37.4802 131.583 37.4617 131.449 37.438 131.315C37.4307 131.273 37.4261 131.247 37.4215 131.222C37.4208 131.215 37.4208 131.214 37.4202 131.205C37.1669 129.134 37.1695 127.058 37.3978 124.986C37.3991 124.975 37.3997 124.971 37.4004 124.962C37.4156 124.86 37.4308 124.757 37.4466 124.655C37.4848 124.415 37.5271 124.175 37.5726 123.936C37.6702 123.425 37.7843 122.918 37.9163 122.415C38.0489 121.916 38.198 121.42 38.3656 120.931C38.4427 120.703 38.5245 120.477 38.6103 120.253C38.6571 120.131 38.7053 120.009 38.7541 119.889C38.7614 119.873 38.7667 119.861 38.7746 119.842C39.2007 118.914 39.6737 118.014 40.2411 117.162C40.3915 116.937 40.5505 116.717 40.7088 116.498C40.7128 116.492 40.7332 116.465 40.757 116.435C40.8058 116.377 40.9001 116.261 40.9213 116.236C41.2524 115.847 41.5915 115.469 41.9557 115.111C42.2981 114.775 42.6589 114.46 43.0284 114.154C43.3642 113.874 43.1392 114.07 43.0646 114.125C43.1768 114.042 43.2889 113.96 43.4031 113.88C43.6333 113.72 43.8675 113.566 44.1063 113.418C44.5431 113.149 45.0022 112.867 45.4765 112.67C45.4627 112.676 46.0353 112.501 45.9185 112.521C45.9251 112.521 45.9984 112.526 46.067 112.531C46.0835 112.554 46.1758 112.597 46.2062 112.605C46.2299 112.628 46.3625 112.797 46.3493 112.756C46.4087 112.859 46.5044 113.021 46.5202 113.024C46.7517 113.627 46.7267 114.251 46.697 114.902C46.633 116.277 46.4865 117.644 46.4608 119.023C46.3619 124.37 47.2571 130.129 50.4949 134.537C53.7268 138.937 58.4919 141.423 63.4008 143.524C65.7038 144.51 68.0366 145.431 70.2347 146.642C71.2632 147.209 72.2653 147.824 73.2377 148.482C74.2787 149.186 75.0545 149.763 75.8891 150.449C79.6976 153.583 82.7612 157.171 85.3499 161.191C86.699 163.286 87.9083 165.471 88.9843 167.717C89.2363 168.244 89.4817 168.774 89.7192 169.308C90.0035 169.945 90.2067 170.427 90.3855 170.853C90.8697 172.007 91.3137 173.18 91.7293 174.361C92.294 175.966 92.7974 177.594 93.2513 179.235C91.9147 179.725 90.6098 180.352 89.3484 181.082C89.3385 180.907 89.2904 180.726 89.196 180.541C87.8351 177.88 85.6132 175.644 84.9647 172.662C84.5194 170.614 84.1776 168.069 82.4518 166.655C81.4412 165.827 80.0657 165.637 78.8459 166.104C77.6201 166.572 77.0627 167.663 76.9156 168.906C76.8549 169.418 76.8575 169.929 76.8305 170.443C76.812 170.795 76.7823 171.276 76.6233 171.463C76.6708 171.407 76.4149 171.607 76.279 171.643C76.0349 171.708 75.7664 171.638 75.5282 171.572C74.792 171.365 74.1428 170.918 73.5544 170.443C68.3882 166.263 65.8437 160.08 61.9659 154.858C60.9757 153.525 59.9004 152.252 58.6944 151.108C57.5076 149.983 55.6637 148.582 54.2632 150.266C53.1806 151.568 53.5883 153.739 53.9505 155.234C54.4004 157.089 55.2488 158.838 56.1328 160.519C57.6851 163.469 59.8951 166.978 59.1054 170.474C58.8112 171.774 58.195 173.08 57.1705 173.963C56.0635 174.917 55.0733 174.676 53.7717 174.294C52.3375 173.873 50.7694 173.541 49.4058 174.369C48.0599 175.188 47.5098 176.724 47.6133 178.243C47.7162 179.76 48.3159 181.154 49.0324 182.476C49.7323 183.768 50.4725 184.972 50.5998 186.475C50.6533 187.103 50.7318 187.956 50.3617 188.514C49.9909 189.073 49.2514 189.017 48.6781 188.861C47.1779 188.45 45.9331 187.175 45.0992 185.912C44.8868 185.591 44.6888 185.26 44.5087 184.919C44.5173 184.937 44.3517 184.573 44.3662 184.632C44.363 184.622 44.359 184.612 44.3557 184.603C44.2383 184.21 44.1169 183.822 44.0146 183.425C43.7369 182.353 43.4908 181.274 43.1821 180.211C42.6543 178.39 41.8752 175.668 39.8195 175.029C38.4922 174.617 37.1847 175.308 36.4267 176.4C35.4021 177.876 35.3362 179.933 35.2517 181.661C35.1548 183.652 35.2042 185.648 34.9252 187.627C34.6303 189.72 34.1131 191.774 33.7384 193.853C33.0648 197.589 32.8227 201.562 34.5736 205.056C36.0942 208.092 38.9883 210.206 41.8937 211.802C45.2186 213.629 48.8958 215.255 52.6317 215.995C53.676 216.201 54.7342 216.319 55.793 216.421C54.7949 218.262 53.9248 220.182 52.9814 222.072C52.7175 222.045 52.4457 222.054 52.1759 222.112C46.697 223.287 40.9536 222.812 35.6865 220.764C34.6428 220.358 33.5912 219.839 32.5938 219.265C32.1346 219.001 31.6847 218.721 31.2447 218.428C31.0283 218.283 30.8152 218.135 30.6041 217.983C30.4847 217.898 30.3659 217.81 30.2478 217.723C30.2109 217.695 30.1898 217.68 30.1766 217.671C30.1515 217.65 30.135 217.636 30.0994 217.608C29.2708 216.931 28.4805 216.212 27.7495 215.429C27.4164 215.071 27.0951 214.703 26.7864 214.324C26.7204 214.243 26.6557 214.162 26.5904 214.08C26.5904 214.08 26.5904 214.08 26.5898 214.079C26.5812 214.067 26.5772 214.061 26.564 214.043C26.4004 213.822 26.2375 213.598 26.0805 213.371C25.494 212.523 24.9662 211.635 24.4972 210.717C24.2782 210.287 24.0743 209.849 23.879 209.407C23.8421 209.316 23.7385 209.069 23.7121 209.001C23.6112 208.744 23.5149 208.485 23.4225 208.226C23.0742 207.245 22.7826 206.244 22.5458 205.23C22.4336 204.753 22.3333 204.274 22.2449 203.792C22.2001 203.55 22.1585 203.308 22.1196 203.065C22.0972 202.925 22.0774 202.785 22.0556 202.646C22.0503 202.611 22.047 202.592 22.0431 202.57C22.0424 202.558 22.0404 202.542 22.0371 202.513C21.7884 200.376 21.7159 198.23 21.8267 196.083ZM34.4693 154.141C34.4687 154.129 34.4687 154.13 34.4693 154.141V154.141ZM38.7495 119.898C38.6921 120.038 38.7007 120.009 38.7495 119.898V119.898ZM46.2101 112.606C46.2114 112.606 46.2134 112.607 46.2141 112.607C46.2992 112.663 46.383 112.72 46.2101 112.606ZM116.43 215.272C116.503 215.28 116.557 215.284 116.598 215.288C116.734 215.312 116.869 215.338 117.005 215.371C117.245 215.428 117.484 215.498 117.716 215.585C117.739 215.605 118.053 215.754 118.068 215.762C118.122 215.792 118.499 216.055 118.546 216.074C118.733 216.232 118.913 216.401 119.078 216.58C119.16 216.669 119.238 216.76 119.316 216.853C119.337 216.883 119.368 216.926 119.419 216.997C119.752 217.513 120.076 218.04 120.322 218.607C120.922 219.991 121.204 221.5 121.592 222.952C121.904 224.112 122.311 225.485 122.433 226.546C122.575 227.784 122.564 228.79 121.803 229.716C120.967 230.734 119.802 231.406 118.637 232.001C117.59 231.732 116.537 231.482 115.482 231.237C113.895 230.87 112.303 230.507 110.73 230.078C110.931 230.025 111.134 229.981 111.335 229.927C113.535 229.338 115.888 228.753 117.947 227.765C118.705 227.401 118.367 226.021 117.503 226.126C115.225 226.406 112.938 227.109 110.716 227.681C109.61 227.965 108.505 228.252 107.4 228.538C107.14 228.604 106.874 228.666 106.608 228.73C105.408 228.266 104.222 227.757 103.041 227.241C104.154 226.987 105.265 226.733 106.377 226.481C107.292 226.273 108.209 226.077 109.124 225.871C110.065 225.659 111.065 225.503 111.94 225.087C112.765 224.694 112.298 223.501 111.501 223.467C110.575 223.428 109.593 223.702 108.689 223.886C107.734 224.079 106.784 224.294 105.834 224.508C104.481 224.813 103.135 225.148 101.792 225.495C102.678 224.021 103.415 222.475 104.089 220.832C104.848 218.982 105.645 217.229 106.639 215.552C109.871 214.774 113.145 215.029 116.43 215.272ZM132.719 240.101C131.155 237.393 128.448 235.536 125.636 234.307C125.084 234.067 124.526 233.847 123.965 233.637C125.176 232.577 126.148 231.281 126.54 229.699C127.207 227.013 126.407 224.277 125.715 221.685C124.979 218.927 124.305 216.208 122.474 213.94C120.867 211.952 118.591 211.135 116.113 210.936C114.07 210.771 112.037 210.674 110.016 210.773C111.019 209.391 111.967 207.976 112.73 206.42C115.01 201.611 116.117 195.641 114.808 190.403C113.527 185.275 109.674 181.164 104.833 179.199C102.296 178.17 99.7632 177.922 97.2966 178.233C95.0232 168.775 90.6744 159.728 84.2852 152.37C80.9286 148.504 76.9103 145.132 72.4111 142.675C67.8862 140.204 62.8407 138.817 58.5031 135.976C56.526 134.682 54.6999 132.956 53.461 130.838C52.2451 128.759 51.4726 126.084 51.1936 123.814C50.8604 121.1 50.9435 118.372 51.1533 115.653C51.2813 113.995 51.2351 112.273 50.4224 110.776C49.6637 109.381 48.3034 108.311 46.7194 108.082C44.0364 107.694 41.2894 109.675 39.3709 111.365C37.7098 112.829 36.3297 114.675 35.325 116.644C33.2752 120.658 32.4697 125.287 32.7765 129.77C32.9256 131.944 33.2917 134.129 33.9607 136.207C34.78 138.747 36.0388 141.116 37.4182 143.39C38.8306 145.721 40.3651 147.983 41.6027 150.415C42.618 152.411 43.8372 155.166 43.4308 157.483C43.3536 157.922 43.1709 158.307 42.9386 158.727C42.9195 158.761 42.9103 158.78 42.903 158.798C42.8793 158.818 42.8469 158.848 42.8001 158.895C42.7236 158.97 42.3931 159.262 42.3878 159.288C42.2618 159.377 42.1351 159.465 42.0025 159.542C41.9431 159.577 41.6364 159.723 41.5315 159.779C41.418 159.814 41.2128 159.882 41.1482 159.899C41.0354 159.929 40.9206 159.95 40.8078 159.978C40.8065 159.978 40.8065 159.977 40.8058 159.977C40.6422 159.945 40.4291 159.974 40.2536 159.979C40.2741 159.985 40.2899 159.99 40.313 159.998C40.2893 159.99 40.2616 159.986 40.2352 159.979C40.2279 159.98 40.2187 159.981 40.2114 159.981C40.1085 159.981 40.0346 159.946 40.0485 159.935C40.03 159.93 40.0089 159.926 39.9911 159.921C39.9442 159.908 39.8947 159.889 39.8453 159.871C39.844 159.869 39.8446 159.869 39.8433 159.867C39.8103 159.824 39.6784 159.768 39.6289 159.74C39.6269 159.74 39.6269 159.74 39.6249 159.738C39.6084 159.719 39.5926 159.699 39.5583 159.666C39.5062 159.614 39.4844 159.6 39.4745 159.599C39.4587 159.569 39.4396 159.533 39.4099 159.48C39.3756 159.421 39.2192 159.066 39.212 159.076C38.9923 158.419 38.9962 157.864 39.0022 157.146C39.0154 155.658 39.0391 154.233 38.7746 152.76C38.543 151.468 38.0786 150.227 37.5066 149.049C36.3666 146.701 34.5518 144.728 32.4348 143.227C30.4385 141.812 27.9864 140.848 25.5276 140.753C23.4746 140.673 21.1307 141.204 19.6332 142.697C17.6956 144.627 17.9753 147.536 19.3963 149.682C20.2368 150.951 21.3735 151.962 22.3155 153.147C22.8954 153.879 23.6171 155.094 24.0882 156.128C24.071 156.099 24.2603 156.555 24.2887 156.63C24.3837 156.888 24.4728 157.149 24.5539 157.411C24.7393 158.008 24.8897 158.616 25.0065 159.23C25.021 159.307 25.1067 159.847 25.114 159.857C25.145 160.106 25.1694 160.355 25.1892 160.604C25.2407 161.234 25.2605 161.866 25.2552 162.497C25.2492 163.097 25.2209 163.698 25.1721 164.296C25.149 164.578 25.1213 164.86 25.0903 165.142C25.087 165.168 25.0632 165.367 25.052 165.461C25.0355 165.57 24.9913 165.881 24.992 165.877C24.8006 167.112 24.5401 168.335 24.2366 169.548C22.9746 174.59 20.9671 179.398 19.4359 184.357C16.805 192.876 16.2297 202.385 19.6015 210.774C16.3016 212.921 13.0394 215.752 13.0776 220.011C13.0875 221.101 13.3983 222.165 13.393 223.257C13.3877 224.24 13.0677 225.188 12.8949 226.151C12.5657 227.978 12.6389 229.781 13.3435 231.509C13.7235 232.441 14.2268 233.274 14.8113 234.033C12.0181 234.711 9.19789 235.268 6.56566 236.497C2.75519 238.275 -0.0063448 242.472 1.21016 246.747C1.81709 248.879 3.5033 250.459 3.19258 252.699C3.05272 253.704 2.77498 254.762 2.70967 255.807C2.64436 256.854 2.80664 257.97 3.11274 258.974C4.13925 262.349 6.8678 264.573 10.0766 265.777C12.3473 266.629 14.8252 266.935 17.2767 266.857C15.1471 270.607 13.7862 274.726 14.1431 279.139C14.3858 282.139 15.7956 284.957 17.373 287.479C18.0894 288.626 18.9655 289.634 20.1372 290.327C21.1617 290.931 22.3241 291.333 23.4515 291.698C24.5354 292.05 25.6253 292.375 26.7013 292.751C26.7072 292.753 26.7316 292.762 26.7613 292.774C26.8609 292.817 27.1096 292.924 27.1466 292.941C27.4771 293.086 27.8083 293.228 28.1407 293.369C28.9291 293.704 29.7201 294.033 30.517 294.347C31.911 294.895 33.3195 295.405 34.7418 295.875C36.2921 296.387 37.8787 296.938 39.526 296.999C44.3207 297.177 48.8885 294.205 52.0505 290.857C55.1729 287.55 57.4595 283.604 59.8595 279.773C62.9562 274.832 66.3187 270.051 69.955 265.492C71.6623 263.352 73.4343 261.264 75.2445 259.211C79.6712 261.341 84.2773 262.842 89.0694 263.923C91.3078 264.427 93.5765 264.939 95.6493 265.95C97.7841 266.992 99.7573 268.328 101.874 269.403C107.701 272.362 115.288 273.322 121.397 270.662C124.45 269.334 126.767 266.839 127.813 263.671C128.106 262.781 128.224 261.862 128.392 260.943C128.612 259.736 129.048 258.794 129.694 257.76C130.98 255.702 132.202 253.684 133.065 251.404C134.431 247.786 134.708 243.547 132.719 240.101Z" fill="#386641"/>
<path d="M37.4914 287.622C36.7729 287.434 36.0301 287.349 35.319 287.129C34.6071 286.908 33.9573 286.539 33.2969 286.2C30.7775 284.911 27.6901 284.313 25.5968 282.308C24.7709 281.517 24.1613 280.514 24.1996 279.34C24.2359 278.237 24.8342 277.285 25.9082 276.94C27.2164 276.519 28.7839 276.777 30.073 277.143C31.4748 277.541 32.5884 278.417 33.5872 279.451C34.7938 280.699 35.8804 282.07 37.0025 283.392C37.5818 284.073 38.159 284.756 38.7362 285.438C39.0351 285.79 39.9033 286.545 40.0834 287.141C40.0787 287.223 40.0913 287.307 40.113 287.391C40.1124 287.398 40.1157 287.407 40.1144 287.414C40.0834 287.635 40.1137 287.849 40.1843 288.042C40.0517 288.13 39.9738 288.175 39.7489 288.184C38.983 288.212 38.221 287.814 37.4914 287.622ZM40.3651 287.833C40.3651 287.833 40.3651 287.834 40.3651 287.834C40.3585 287.826 40.3519 287.819 40.3492 287.813C40.3552 287.82 40.3591 287.826 40.3651 287.833ZM40.1889 290.37C41.794 290.09 43.2928 287.909 41.8962 286.568C41.4628 285.229 40.214 284.13 39.3201 283.075C37.9532 281.46 36.6377 279.783 35.1949 278.235C33.8676 276.811 32.3357 275.72 30.4958 275.06C28.745 274.432 26.5455 274.204 24.7913 274.922C23.1619 275.589 22.1578 277.072 21.9467 278.798C21.7382 280.504 22.3695 282.105 23.4706 283.395C24.6145 284.733 26.1985 285.618 27.7923 286.309C28.7271 286.714 29.6837 287.065 30.6245 287.459C31.6457 287.886 32.6009 288.442 33.611 288.891C34.7219 289.386 35.8705 289.533 37.0349 289.84C38.0686 290.112 39.0951 290.561 40.1889 290.37Z" fill="#386641"/>
<path d="M33.0225 280.976C32.5614 280.685 32.0818 280.424 31.589 280.192C30.7439 279.794 29.852 279.445 28.9376 279.208C28.7496 279.011 28.4903 278.892 28.2001 278.866C27.9487 278.843 27.7066 278.891 27.4836 278.982C27.0964 279.029 26.7415 279.244 26.6445 279.672C26.6432 279.678 26.6432 279.686 26.6418 279.692C26.5501 279.834 26.4736 279.985 26.4235 280.146C26.2553 280.684 26.6234 281.251 27.1399 281.408C27.2046 281.428 27.2679 281.449 27.3326 281.469C27.3438 281.472 27.3761 281.486 27.4012 281.496C27.4948 281.539 27.5872 281.586 27.6769 281.637C27.7785 281.694 27.8775 281.756 27.9745 281.82C28.0299 281.857 28.084 281.896 28.1387 281.934C28.1559 281.946 28.175 281.96 28.1902 281.971C28.5959 282.289 28.9653 282.652 29.346 282.999C30.2749 283.845 31.3297 284.574 32.6082 284.715C33.2402 284.784 34.0781 284.702 34.5352 284.207C35.1409 283.55 34.9707 282.69 34.4429 282.053C34.0774 281.612 33.5041 281.281 33.0225 280.976Z" fill="#386641"/>
<path d="M54.1188 247.34C54.6743 246.399 53.3245 245.699 52.6991 246.51C50.406 249.482 48.2474 252.551 45.9107 255.492C43.5826 258.421 41.1496 261.266 38.6183 264.02C37.7712 264.942 39.1408 266.322 39.9958 265.399C42.6069 262.579 45.1158 259.666 47.5006 256.652C49.8531 253.679 52.1905 250.61 54.1188 247.34Z" fill="#386641"/>
<path d="M64.327 236.764C61.5068 239.686 59.0619 243.043 56.648 246.301C54.2071 249.593 51.8651 252.958 49.6168 256.385C48.9156 257.454 50.6288 258.446 51.3261 257.384C53.5454 254.001 55.8563 250.678 58.2636 247.426C60.6696 244.174 63.2992 241.075 65.6464 237.782C66.2059 236.997 64.9795 236.088 64.327 236.764Z" fill="#386641"/>
<path d="M87.2948 224.368C87.8991 223.579 86.5935 222.598 85.9266 223.312C82.1491 227.35 78.739 231.762 75.3356 236.116C71.9394 240.46 68.627 244.868 65.4077 249.346C64.6695 250.372 66.3656 251.346 67.0985 250.335C70.3291 245.879 73.6362 241.478 77.0344 237.149C80.4074 232.852 83.9692 228.701 87.2948 224.368Z" fill="#386641"/>
<path d="M56.1763 242.594C57.0029 239.77 59.8509 238.198 61.956 236.404C64.4365 234.29 65.8523 231.505 67.3432 228.669C68.1058 227.218 68.9113 225.755 70.0117 224.528C71.2625 223.133 72.8452 222.147 74.3645 221.077C77.1794 219.096 79.5168 216.647 81.5032 213.841C83.789 210.61 85.4997 207.081 87.2195 203.533C87.7236 202.493 86.1897 201.576 85.6573 202.619C82.5079 208.795 79.148 215.237 73.3248 219.298C71.8015 220.36 70.2004 221.353 68.8922 222.686C67.7324 223.868 66.822 225.273 66.0225 226.715C64.4352 229.58 63.1686 232.573 60.6379 234.76C58.2313 236.841 54.9051 238.665 54.2724 242.069C54.0435 243.303 55.8142 243.831 56.1763 242.594Z" fill="#386641"/>
<path d="M81.8403 216.682C78.3194 220.037 75.1851 223.773 72.2343 227.634C71.595 228.47 73.0457 229.603 73.7034 228.768C76.6635 225.012 79.8638 221.459 83.0792 217.922C83.8365 217.089 82.6616 215.9 81.8403 216.682Z" fill="#386641"/>
<path d="M97.7934 206.59C98.9802 205.159 100.167 203.729 101.354 202.298C101.929 201.605 102.508 200.913 103.073 200.211C103.671 199.467 104.39 198.728 104.869 197.899C105.364 197.045 104.254 196.268 103.55 196.881C102.884 197.461 102.344 198.239 101.775 198.913C101.175 199.622 100.589 200.344 100 201.063C98.8397 202.48 97.6786 203.896 96.5182 205.313C96.2094 205.69 96.1494 206.221 96.5182 206.59C96.8381 206.91 97.4813 206.967 97.7934 206.59Z" fill="#386641"/>
<path d="M57.7061 257.269C56.6579 258.503 55.9104 260.031 55.0713 261.41C54.2328 262.788 53.3738 264.154 52.5123 265.519C51.6507 266.884 50.7673 268.235 49.8946 269.593C48.996 270.989 47.9722 272.328 47.1706 273.783C46.7108 274.618 47.8659 275.611 48.5388 274.839C49.6122 273.606 50.5002 272.195 51.4231 270.848C52.3665 269.473 53.2855 268.082 54.1879 266.679C55.0878 265.278 55.9606 263.859 56.8215 262.433C57.654 261.056 58.6363 259.651 59.1832 258.13C59.4768 257.312 58.2702 256.605 57.7061 257.269Z" fill="#386641"/>
<path d="M34.658 257.299C34.0952 257.926 33.5938 258.626 33.0812 259.295C32.5924 259.934 32.1108 260.578 31.6259 261.22C31.5026 261.383 31.4894 261.683 31.5408 261.87C31.5943 262.065 31.746 262.278 31.9281 262.374C32.3707 262.608 32.7976 262.45 33.0806 262.072C33.5556 261.438 34.0345 260.808 34.5042 260.171C34.97 259.538 35.4648 258.909 35.8811 258.242C36.0869 257.912 35.9767 257.467 35.6805 257.238C35.3889 257.013 34.9192 257.009 34.658 257.299Z" fill="#386641"/>
<path d="M105.978 251.096C105.219 250.656 104.256 250.475 103.417 250.235C102.525 249.981 101.634 249.73 100.742 249.484C98.9887 249.001 97.2352 248.52 95.4804 248.046C94.2494 247.713 93.7295 249.606 94.9546 249.955C96.7028 250.455 98.4524 250.947 100.203 251.438C101.062 251.679 101.922 251.915 102.783 252.148C103.66 252.385 104.615 252.742 105.529 252.758C106.417 252.774 106.737 251.534 105.978 251.096Z" fill="#386641"/>
<path d="M99.5752 245.632C100.586 245.987 101.618 246.414 102.674 246.602C103.588 246.765 104.255 245.525 103.341 245.019C102.399 244.496 101.33 244.169 100.319 243.803C99.3363 243.446 98.3494 243.098 97.3638 242.748C95.3563 242.035 93.3482 241.324 91.34 240.611C90.1374 240.184 89.6202 242.096 90.8142 242.52C92.7848 243.221 94.756 243.923 96.7272 244.623C97.6759 244.961 98.6245 245.299 99.5752 245.632Z" fill="#386641"/>
<path d="M24.1028 229.235C26.5839 229.794 29.0459 230.432 31.4829 231.158C32.6763 231.514 33.8671 231.882 35.0506 232.271C36.2612 232.669 37.4836 233.187 38.7291 233.457C39.6798 233.662 40.3415 232.333 39.4159 231.826C38.3096 231.22 37.0357 230.837 35.8456 230.426C34.6238 230.006 33.3934 229.609 32.1545 229.241C29.6727 228.504 27.1651 227.858 24.6378 227.296C23.3777 227.015 22.8394 228.95 24.1028 229.235Z" fill="#386641"/>
<path d="M38.5331 229.621C39.5451 229.955 40.5577 230.289 41.571 230.623C42.0586 230.784 42.5461 230.942 43.0369 231.094C43.3146 231.18 43.6214 231.239 43.8391 231.301C44.136 231.387 44.452 231.435 44.76 231.433C45.1136 231.432 45.4422 231.185 45.5359 230.843C45.6368 230.475 45.4567 230.148 45.1664 229.934C44.7033 229.594 44.0957 229.391 43.5567 229.205C43.0712 229.037 42.5843 228.876 42.0955 228.717C41.0822 228.387 40.0682 228.056 39.0549 227.726C38.5661 227.567 37.9611 227.911 37.847 228.412C37.7236 228.953 38.0099 229.448 38.5331 229.621Z" fill="#386641"/>
<path d="M23.2911 248.463C24.8144 247.97 26.3812 247.629 27.9078 247.162C28.8386 246.878 28.7199 245.319 27.669 245.394C25.9616 245.518 24.2866 245.967 22.6558 246.482C21.0184 246.998 19.4239 247.642 17.8934 248.42C17.4184 248.662 17.2819 249.331 17.5392 249.771C17.836 250.278 18.3981 250.337 18.8896 250.126C20.3304 249.509 21.7995 248.946 23.2911 248.463Z" fill="#386641"/>
<path d="M35.5869 217.997C36.9386 218.527 37.7896 216.372 36.5632 215.68C33.6618 214.045 30.9782 211.902 29.0861 209.128C27.2086 206.376 26.2388 203.043 26.2481 199.719C26.2527 198.263 24.0169 198.265 23.9886 199.719C23.8408 207.277 28.4376 215.192 35.5869 217.997Z" fill="#386641"/>
</svg>
