<svg width="137" height="157" viewBox="0 0 137 157" fill="none" xmlns="http://www.w3.org/2000/svg">
<path d="M7.08172 137.746L44.9521 148.772L45.2094 76.3957C44.6923 76.9622 44.6922 77.2454 44.6922 77.2454C44.1725 78.0922 43.1357 78.3754 42.3588 78.3754C41.322 78.3754 40.5424 77.809 40.0227 77.2454C40.0227 77.2454 34.0567 69.0462 28.353 60.2807C17.4549 43.8851 15.6411 39.079 15.1214 37.0993L14.8642 36.2524C14.6043 34.8364 14.342 33.1399 14.342 31.7266L7.08172 28.6169V137.746ZM48.0651 156.405C47.8053 156.405 47.5453 156.405 47.2855 156.405L3.18924 143.683C1.89517 143.399 0.855835 141.986 0.855835 140.573V24.0939C0.855835 22.9638 1.37283 22.117 2.15237 21.5505C2.9319 20.9841 3.96879 20.7009 4.74832 20.9841L17.9772 25.7904C19.2713 26.3568 20.0508 27.4868 20.0508 29.1833C20.0508 29.7497 20.0508 30.0301 20.0508 30.3133C20.0508 31.7266 20.0507 33.1399 20.3106 34.5559L20.5679 35.4028C21.3474 39.3622 33.0198 56.6045 42.0964 69.6127C43.1357 68.1966 44.4349 66.5001 45.7316 64.5232C46.506 63.3904 47.8052 62.8268 49.1019 63.3904C50.3985 63.9568 51.178 65.0868 51.178 66.5001L50.9182 153.012C50.9182 154.145 50.3984 154.989 49.6189 155.558C49.3616 156.122 48.5822 156.405 48.0651 156.405Z" fill="#386641"/>
<path d="M51.1779 67.633L50.9181 148.489L85.1558 137.746V30.3133L69.5934 36.5328V36.8161C69.3335 38.5125 68.2967 43.0355 51.1779 67.633ZM48.0651 156.405C47.5454 156.405 46.7683 156.122 46.2487 155.838C45.4691 155.275 44.952 154.145 44.952 153.295L45.2093 67.0665C45.2093 66.2197 45.4691 65.6533 45.7315 65.0868C58.1783 47.2753 63.1076 38.5125 63.6273 36.2524L63.8872 35.4028C63.8872 35.1196 63.8871 34.8364 64.147 34.556C64.4042 33.4231 64.9265 32.293 65.9633 32.0098L87.2294 23.5303C88.2688 23.247 89.3055 23.247 90.085 23.8107C90.8645 24.3771 91.3817 25.5072 91.3817 26.6372V141.137C91.3817 142.553 90.6047 143.966 89.3055 144.246L49.1018 156.968C48.5821 156.122 48.3224 156.405 48.0651 156.405Z" fill="#386641"/>
<path d="M91.1216 137.746L130.291 148.772V41.6222L91.1216 30.0301V137.746ZM133.142 156.405C132.884 156.405 132.625 156.405 132.362 156.405L87.2291 143.683C85.9351 143.399 84.8956 141.986 84.8956 140.573V25.7904C84.8956 24.6603 85.4153 23.8107 86.1923 23.2471C86.9718 22.6806 88.0086 22.3974 88.7881 22.6806L133.921 36.2524C135.218 36.5329 136.255 37.9489 136.255 39.3621V153.012C136.255 154.145 135.738 154.989 135.218 155.558C134.438 156.122 133.921 156.405 133.142 156.405Z" fill="#386641"/>
<path d="M20.5678 35.686C21.3473 39.6426 33.0198 56.8905 42.0963 69.8931C43.1357 68.4798 44.4349 66.7833 45.7315 64.8064C58.1783 46.9949 63.1076 38.2293 63.6273 35.9692L63.8872 35.1196C63.8872 34.8364 63.8872 34.556 64.147 34.2727C64.4043 33.1399 64.4043 32.0098 64.4043 30.8798C64.4043 17.5912 54.5482 6.84875 42.3587 6.84875C30.6863 6.84875 21.0875 16.7444 20.3105 29.4665C20.3105 30.0301 20.3105 30.3133 20.3105 30.5966C20.3105 32.0098 20.3105 33.4231 20.5678 34.8364V35.686ZM42.0963 78.3755C41.0595 78.3755 40.2826 77.809 39.7629 77.2454C39.7629 77.2454 33.7993 69.0462 28.0905 60.2807C17.1976 43.8852 15.3812 39.079 14.8641 37.0993L14.6043 36.2524C14.3419 34.556 14.0846 32.5762 14.0846 30.5966C14.0846 30.0301 14.0846 29.4666 14.0846 28.9001C14.8642 12.785 27.0536 0.0628662 42.0963 0.0628662C57.6612 0.0628662 70.1106 13.6346 70.1106 30.5966C70.1106 32.0098 70.1106 33.4231 69.8533 34.8364C69.8533 35.4028 69.8533 35.686 69.5934 35.9692V37.0993C69.3336 38.5125 68.2967 43.3187 50.6582 68.763C47.2854 73.5692 44.6922 77.2454 44.6922 77.2454C43.9152 77.809 43.1357 78.3755 42.0963 78.3755Z" fill="#386641"/>
<path d="M42.0962 21.2674C38.2089 21.2674 34.836 24.9407 34.836 29.1833C34.836 33.4231 38.2089 37.0993 42.0962 37.0993C45.9887 37.0993 49.3615 33.4231 49.3615 29.1833C49.3615 24.9407 46.2486 21.2674 42.0962 21.2674ZM42.0962 43.602C34.836 43.602 28.8699 37.0992 28.8699 29.1833C28.8699 21.2673 34.836 14.7647 42.0962 14.7647C49.3616 14.7647 55.3277 21.2673 55.3277 29.1833C55.3277 37.0992 49.3616 43.602 42.0962 43.602Z" fill="#386641"/>
<path d="M30.9459 81.4852H36.9094V87.9879H30.9459V81.4852Z" fill="#386641"/>
<path d="M30.9459 91.0976H36.9094V97.6003H30.9459V91.0976Z" fill="#386641"/>
<path d="M30.9459 100.993H36.9094V107.496H30.9459V100.993Z" fill="#386641"/>
<path d="M30.9459 110.889H36.9094V117.389H30.9459V110.889Z" fill="#386641"/>
<path d="M30.9459 120.782H36.9094V127.284H30.9459V120.782Z" fill="#386641"/>
<path d="M118.099 150.185C116.543 150.185 114.986 148.772 114.986 146.792V64.8063C114.986 63.1071 116.28 61.4134 118.099 61.4134C119.916 61.4134 121.21 62.8266 121.21 64.8063V146.792C121.21 148.772 119.916 150.185 118.099 150.185Z" fill="#386641"/>
<path d="M118.099 58.5841C116.543 58.5841 114.986 57.1708 114.986 55.194V51.801C114.986 50.1046 116.28 48.4081 118.099 48.4081C119.916 48.4081 121.21 49.8214 121.21 51.801V55.194C121.21 56.8904 119.916 58.5841 118.099 58.5841Z" fill="#386641"/>
<path d="M61.0338 150.185C59.4747 150.185 57.9208 148.772 57.9208 146.792V94.4904C57.9208 92.794 59.2174 91.0975 61.0338 91.0975C62.5877 91.0975 64.1468 92.5108 64.1468 94.4904V146.792C64.1468 148.772 62.5877 150.185 61.0338 150.185Z" fill="#386641"/>
</svg>
