<svg width="139" height="128" viewBox="0 0 139 128" fill="none" xmlns="http://www.w3.org/2000/svg">
<path d="M132.24 121.72L104.994 115.793V70.0714L132.24 75.9983V121.72ZM72.2539 91.6624C74.5434 88.0639 78.4357 80.6552 82.0989 73.6699L99.4995 69.8597V115.582L72.2539 121.509V91.6624ZM39.2845 70.0714L57.1429 73.8815C60.3483 80.0202 63.7826 86.1588 66.53 90.8157V121.72L39.2845 115.793V70.0714ZM6.31504 75.9983L33.5606 70.0714V115.793L6.31504 121.72V75.9983ZM69.2775 5.93339C81.87 5.93339 92.1729 15.4588 92.1729 27.101C92.1729 42.3417 77.5198 71.1297 69.9643 84.4654C69.9643 84.677 69.5064 85.1004 69.5064 85.1004C61.493 71.3414 46.3821 42.7651 46.3821 27.101C46.3821 15.4588 56.456 5.93339 69.2775 5.93339ZM135.674 71.3414C100.644 63.7211 102.705 64.1444 102.247 64.1444C101.789 64.1444 102.705 63.9327 85.0753 67.7429C91.4861 54.4073 98.1257 37.8965 98.1257 27.101C97.8968 12.4954 85.0753 0.641479 69.2775 0.641479C53.4796 0.641479 40.6582 12.4954 40.6582 27.101C40.6582 38.1082 47.5268 54.619 53.9375 67.7429C35.6212 63.9327 36.9949 63.9327 36.3081 64.1444C35.8502 64.1444 37.6818 63.9327 2.88073 71.3414C1.507 71.5531 0.591187 72.6115 0.591187 73.8815V125.107C0.591187 126.801 2.42282 128.071 4.0255 127.647L36.3081 120.662C70.6512 128.071 68.5906 127.647 68.8196 127.647C69.0485 127.647 69.2775 127.647 69.7354 127.647C70.1933 127.647 91.2571 122.99 102.018 120.662C136.361 128.071 134.529 127.647 135.216 127.647C136.819 127.647 138.193 126.377 138.193 124.896V73.8815C137.964 72.6115 137.048 71.5531 135.674 71.3414Z" fill="#386641"/>
<path d="M60.8063 27.1011C60.8063 22.6559 64.6986 19.0574 69.5066 19.0574C74.3147 19.0574 78.2069 22.6559 78.2069 27.1011C78.2069 31.5463 74.3147 35.1448 69.5066 35.1448C64.6986 35.1448 60.8063 31.5463 60.8063 27.1011ZM83.7018 27.1011C83.7018 19.9041 77.2911 13.7655 69.2777 13.7655C61.2643 13.7655 54.8535 19.6924 54.8535 27.1011C54.8535 34.5098 61.2643 40.4367 69.2777 40.4367C77.2911 40.4367 83.7018 34.2981 83.7018 27.1011Z" fill="#386641"/>
</svg>
