<svg width="116" height="150" viewBox="0 0 116 150" fill="none" xmlns="http://www.w3.org/2000/svg">
<path d="M40.2532 108.021C17.911 110.997 5.99617 118.844 5.99617 124.797C5.99617 128.854 11.2087 133.454 20.1466 136.701C30.0743 140.491 43.4787 142.654 57.8778 142.654C72.2769 142.654 85.4325 140.488 95.6114 136.701C104.549 133.183 109.762 128.854 109.762 124.797C109.762 118.305 96.1087 110.187 73.0205 107.75C72.0282 109.103 71.2846 110.187 70.2923 111.539C77.9867 112.621 89.4065 115.597 89.4065 122.902C89.4065 126.96 85.9298 130.207 78.979 132.373C73.2691 134.267 65.8209 135.081 57.8778 135.081C49.9347 135.081 42.4888 133.996 36.7765 132.373C29.8256 130.207 26.3515 126.96 26.3515 122.902C26.3515 116.139 35.7841 113.163 43.2324 111.811C42.2376 110.726 41.2454 109.374 40.2532 108.021ZM57.8778 149.148C42.9838 149.148 28.8333 146.983 18.4083 142.654C6.7398 138.054 0.535034 131.833 0.535034 124.797C0.535034 120.739 2.76819 114.787 12.947 109.374C20.1466 105.584 30.0743 102.879 41.4965 101.529C42.4888 101.529 43.4787 101.798 44.2247 102.879C46.4579 106.127 48.6936 109.103 50.9293 112.35C51.6705 113.163 51.6705 114.513 51.1756 115.597C50.6782 116.679 49.9346 117.492 48.9424 117.492C37.5226 118.844 32.8049 122.092 32.31 123.173C32.5587 123.715 34.2946 125.339 39.5096 126.96C44.471 128.586 51.1756 129.397 58.1264 129.397C65.0773 129.397 71.7795 128.586 76.7458 126.96C81.9583 125.339 83.6966 123.715 83.9452 123.173C83.6966 122.634 82.4532 121.278 78.979 120.197C75.2536 118.844 70.2923 117.76 64.8286 117.492C63.8364 117.492 62.8416 116.679 62.3467 115.597C61.8493 114.513 62.1004 113.431 62.5953 112.35C64.8286 109.103 67.0618 105.858 69.2999 102.611C69.7949 101.798 70.7872 101.258 71.7795 101.258C83.6966 102.34 94.3704 105.045 102.065 108.832C112.99 114.245 115.472 120.468 115.472 124.797C115.472 131.833 109.264 138.054 97.5983 142.654C86.9246 146.712 72.7742 149.148 57.8778 149.148Z" fill="#386641"/>
<path d="M32.0588 122.902C32.3099 123.444 34.0458 125.068 39.2584 126.691C44.2247 128.315 50.9293 129.126 57.8777 129.126C64.8286 129.126 71.5331 128.315 76.497 126.691C81.712 125.068 83.4479 123.444 83.6966 122.902C83.4479 122.36 82.2069 121.007 78.7327 119.926C75.5047 118.844 71.0357 117.76 66.3206 117.221C62.1003 123.444 59.1211 127.502 58.8699 127.502C58.375 128.315 57.3828 128.586 56.6367 128.586C55.6445 128.586 54.9008 128.044 54.4034 127.502C54.4034 127.502 51.4242 123.444 47.204 117.492C36.7764 119.113 32.5586 121.821 32.0588 122.902ZM57.8777 135.349C49.9346 135.349 42.4888 134.267 36.7764 132.644C29.8256 130.481 26.3514 127.234 26.3514 123.173C26.3514 114.787 41.4965 112.079 48.1962 111.266C49.1909 111.266 50.1832 111.539 50.6781 112.35C53.1625 115.597 55.147 118.573 56.388 120.468C57.8777 118.305 59.8623 115.597 62.3466 112.079C62.8415 111.266 63.8363 110.726 64.8286 110.997C70.5385 111.539 89.1577 113.705 89.1577 123.173C89.1577 127.234 85.6835 130.481 78.7327 132.644C73.269 134.267 65.8209 135.349 57.8777 135.349Z" fill="#386641"/>
<path d="M17.4135 58.7761C17.9109 61.2129 21.6337 70.1414 43.9759 102.611C46.2116 105.858 48.4449 108.832 50.6782 112.079C53.1625 115.326 55.1471 118.305 56.388 120.197C57.8777 118.031 59.8623 115.326 62.3467 111.811C64.5799 108.563 66.8155 105.316 69.0488 102.069C91.391 69.8703 95.1164 60.6708 95.6113 58.5077L95.8599 56.8841C96.3573 54.179 96.6035 51.7422 96.6035 49.0371C96.6035 25.2249 78.484 5.74422 56.388 5.74422C34.2945 5.74422 16.1725 25.2249 16.1725 49.0371C16.1725 51.7422 16.4213 54.4473 16.9186 56.8841L17.4135 58.7761ZM56.388 128.855C55.3958 128.855 54.6497 128.315 54.1548 127.773C54.1548 127.773 50.6782 123.173 45.963 116.408C43.7298 113.163 41.4966 109.916 39.2584 106.669C22.1312 82.0461 12.9471 66.3548 11.7061 60.3997L11.455 58.7761C10.9601 55.7999 10.7138 52.8264 10.7138 49.8475C10.7138 22.5198 31.3177 0.0629272 56.6368 0.0629272C81.9583 0.0629272 102.562 22.2514 102.562 49.8475C102.562 52.8264 102.316 55.7999 101.819 58.7761L101.321 60.1287C100.08 66.0837 90.8961 81.7751 73.7664 106.127C71.5332 109.374 69.2999 112.621 67.0618 115.868C62.3466 122.634 58.8699 127.502 58.8699 127.502C58.1264 128.315 57.3828 128.855 56.388 128.855Z" fill="#386641"/>
<path d="M56.3881 31.4482C48.1962 31.4482 41.7428 38.4848 41.7428 47.4133C41.7428 56.0708 48.4449 63.3757 56.3881 63.3757C64.5799 63.3757 71.0359 56.3419 71.0359 47.4133C71.2846 38.4848 64.5799 31.4482 56.3881 31.4482ZM56.3881 69.5991C45.217 69.5991 36.0329 59.5891 36.0329 47.4133C36.0329 35.2376 45.217 25.2248 56.3881 25.2248C67.5592 25.2248 76.7458 35.2376 76.7458 47.4133C76.9945 59.5891 67.8079 69.5991 56.3881 69.5991Z" fill="#386641"/>
</svg>
