<svg width="135" height="167" viewBox="0 0 135 167" fill="none" xmlns="http://www.w3.org/2000/svg">
<path d="M103.053 141.423C103.053 146.043 99.6227 150.047 95.048 150.047H78.4701L89.3318 138.344H94.189C95.048 138.344 95.9042 137.42 95.9042 136.496V131.26L103.053 123.561V141.423ZM63.6064 160.21L51.5997 162.366L53.602 149.431L59.889 142.655L69.8946 153.434L63.6064 160.21ZM88.7582 21.0052C90.7587 21.0052 92.4739 22.853 92.4739 25.0088V29.0125C92.4739 31.1683 90.7587 33.0162 88.7582 33.0162C86.7576 33.0162 85.0453 31.1683 85.0453 29.0125V25.0088C85.0453 22.545 86.7576 21.0052 88.7582 21.0052ZM70.7521 21.0052C72.751 21.0052 74.4661 22.853 74.4661 25.0088V29.0125C74.4661 31.1683 72.751 33.0162 70.7521 33.0162C68.751 33.0162 67.0359 31.1683 67.0359 29.0125V25.0088C67.3215 22.545 68.751 21.0052 70.7521 21.0052ZM53.0289 21.0052C55.0312 21.0052 56.7466 22.853 56.7466 25.0088V29.0125C56.7466 31.1683 55.0312 33.0162 53.0289 33.0162C51.029 33.0162 49.3138 30.8604 49.3138 28.7045V24.7009C49.3138 22.545 51.029 21.0052 53.0289 21.0052ZM35.0212 21.0052C37.0235 21.0052 38.7386 22.853 38.7386 25.0088V29.0125C38.7386 31.1683 37.0235 33.0162 35.0212 33.0162C33.0212 33.0162 31.3058 31.1683 31.3058 29.0125V25.0088C31.5918 22.545 33.0212 21.0052 35.0212 21.0052ZM17.3003 21.0052C19.3014 21.0052 21.0154 22.853 21.0154 25.0088V29.0125C21.0154 31.1683 19.3014 33.0162 17.3003 33.0162C15.2992 33.0162 13.584 31.1683 13.584 29.0125V25.0088C13.584 22.545 15.2992 21.0052 17.3003 21.0052ZM10.7262 150.047C6.43829 150.047 2.72288 146.351 2.72288 141.423V23.7769C2.72288 19.1573 6.15233 15.1536 10.7262 15.1536H15.2992V17.3095C12.1557 18.2334 9.86747 21.3131 9.86747 24.7009V28.7045C9.86747 33.0162 13.0121 36.4039 17.0143 36.4039C21.0154 36.4039 24.1601 33.0162 24.1601 28.7045V24.7009C24.1601 21.0052 21.8733 18.2334 18.7287 17.3095V15.1536H33.0212V17.3095C29.8766 18.2334 27.5907 21.3131 27.5907 24.7009V28.7045C27.5907 33.0162 30.7353 36.4039 34.7353 36.4039C38.7386 36.4039 41.8833 33.0162 41.8833 28.7045V24.7009C41.8833 21.0052 39.5951 18.2334 36.4504 17.3095V15.1536H50.743V17.3095C47.5987 18.2334 45.3127 21.3131 45.3127 24.7009V28.7045C45.3127 33.0162 48.4562 36.4039 52.4584 36.4039C56.4595 36.4039 59.6042 33.0162 59.6042 28.7045V24.7009C59.6042 21.0052 57.3171 18.2334 54.1725 17.3095V15.1536H68.4651V17.3095C65.3204 18.2334 63.0337 21.3131 63.0337 24.7009V28.7045C63.0337 33.0162 66.178 36.4039 70.1805 36.4039C74.1807 36.4039 77.3257 33.0162 77.3257 28.7045V24.7009C77.3257 21.0052 75.0397 18.2334 71.8948 17.3095V15.1536H86.1868V17.3095C83.0419 18.2334 80.756 21.3131 80.756 24.7009V28.7045C80.756 33.0162 83.9009 36.4039 87.902 36.4039C91.9031 36.4039 95.048 33.0162 95.048 28.7045V24.7009C95.048 21.0052 92.7592 18.2334 89.6171 17.3095V15.1536H95.048C99.3345 15.1536 103.053 18.8493 103.053 23.7769V90.6075L95.9042 98.3069V53.6505C95.9042 52.7266 95.048 51.8027 94.189 51.8027C93.3329 51.8027 92.1885 52.7266 92.1885 53.6505V102.311L62.1769 134.648H13.584V53.6505C13.584 52.7266 12.7262 51.8027 11.8686 51.8027C11.0121 51.8027 10.1534 52.7266 10.1534 53.6505V136.496C10.1534 137.42 11.0121 138.344 11.8686 138.344H58.7466C49.5998 148.199 51.5997 146.043 50.743 146.967C50.4573 147.275 50.1725 147.583 50.1725 147.891L49.8843 149.739H10.7262V150.047ZM118.772 78.9045C121.632 75.8247 126.203 75.8247 128.778 78.9045C131.634 81.9842 131.634 86.9118 128.778 89.6836L126.489 92.7634L116.486 81.9842L118.772 78.9045ZM113.627 84.448L123.632 95.2272L121.061 97.9989L111.055 87.2198L113.627 84.448ZM64.1769 137.728L95.048 104.466C99.6227 99.5388 103.624 95.2272 108.481 89.9916L112.197 93.9953L65.8923 144.195L62.1769 140.192C62.1769 139.884 64.1769 137.728 64.1769 137.728ZM72.1802 150.971L68.4651 146.967L115.056 96.767L118.772 100.771L72.1802 150.971ZM122.488 102.311L131.349 92.7634C135.635 88.1437 135.635 81.0603 131.349 76.4407C127.062 71.821 120.487 71.821 116.201 76.4407L106.481 86.9118V23.7769C106.481 17.0015 101.338 11.4579 95.048 11.4579H90.4733V1.91072C90.4733 0.986791 89.6172 0.0628662 88.7582 0.0628662C87.902 0.0628662 87.0458 0.986791 87.0458 1.91072V11.4579H72.751V1.91072C72.751 0.986791 71.8948 0.0628662 71.0369 0.0628662C70.1805 0.0628662 69.3215 0.986791 69.3215 1.91072V11.4579H55.0312V1.91072C55.0312 0.986791 54.1725 0.0628662 53.316 0.0628662C52.4585 0.0628662 51.5997 0.986791 51.5997 1.91072V11.4579H37.3091V1.91072C37.3091 0.986791 36.4504 0.0628662 35.594 0.0628662C34.7353 0.0628662 33.8788 0.986791 33.8788 1.91072V11.4579H19.5874V1.91072C19.5874 0.986791 18.7286 0.0628662 17.8719 0.0628662C17.0143 0.0628662 16.1568 0.986791 16.1568 1.91072V11.4579H11.5829C5.29477 11.4579 0.150146 17.0015 0.150146 23.7769V141.423C0.150146 148.199 5.29477 153.742 11.5829 153.742H49.3138L47.5987 164.522C47.3138 165.753 48.4562 166.985 49.5998 166.677L64.7488 163.906C65.0356 163.906 65.3204 163.598 65.6064 163.29L74.4661 153.742H95.048C101.338 153.742 106.481 148.199 106.481 141.423V119.557C108.481 117.401 120.487 104.466 122.488 102.311Z" fill="#386641"/>
<path d="M24.4459 61.3499H81.6149C82.471 61.3499 83.33 60.426 83.33 59.502C83.33 58.5781 82.471 57.6542 81.6149 57.6542H24.4459C23.5883 57.6542 22.7308 58.5781 22.7308 59.502C22.4459 60.426 23.3024 61.3499 24.4459 61.3499Z" fill="#386641"/>
<path d="M24.4459 69.0492H81.6149C82.471 69.0492 83.33 68.1253 83.33 67.2014C83.33 66.2774 82.471 65.3535 81.6149 65.3535H24.4459C23.5883 65.3535 22.7308 66.2774 22.7308 67.2014C22.4459 68.1253 23.3024 69.0492 24.4459 69.0492Z" fill="#386641"/>
<path d="M24.4459 76.7487H81.6149C82.471 76.7487 83.33 75.8248 83.33 74.9008C83.33 73.9769 82.471 73.053 81.6149 73.053H24.4459C23.5883 73.053 22.7308 73.9769 22.7308 74.9008C22.4459 75.8248 23.3024 76.7487 24.4459 76.7487Z" fill="#386641"/>
<path d="M24.4459 84.448H81.6149C82.471 84.448 83.33 83.5241 83.33 82.6002C83.33 81.6762 82.471 80.7523 81.6149 80.7523H24.4459C23.5883 80.7523 22.7308 81.6762 22.7308 82.6002C22.4459 83.5241 23.3024 84.448 24.4459 84.448Z" fill="#386641"/>
<path d="M24.4459 92.1473H81.6149C82.471 92.1473 83.33 91.2234 83.33 90.2995C83.33 89.3756 82.471 88.4516 81.6149 88.4516H24.4459C23.5883 88.4516 22.7308 89.3756 22.7308 90.2995C22.4459 91.2234 23.3024 92.1473 24.4459 92.1473Z" fill="#386641"/>
<path d="M24.4459 99.8467H54.7443C55.603 99.8467 56.4594 98.9228 56.4594 97.9988C56.4594 97.0749 55.603 96.151 54.7443 96.151H24.4459C23.5883 96.151 22.7308 97.0749 22.7308 97.9988C22.4459 98.9228 23.3024 99.8467 24.4459 99.8467Z" fill="#386641"/>
<path d="M24.4459 107.546H42.4539C43.3104 107.546 44.1691 106.622 44.1691 105.698C44.1691 104.774 43.3104 103.85 42.4539 103.85H24.4459C23.5883 103.85 22.7308 104.774 22.7308 105.698C22.4459 106.622 23.3024 107.546 24.4459 107.546Z" fill="#386641"/>
<path d="M103.053 141.423C103.053 146.043 99.6227 150.047 95.048 150.047H78.4701L89.3318 138.344H94.189C95.048 138.344 95.9042 137.42 95.9042 136.496V131.26L103.053 123.561V141.423ZM63.6064 160.21L51.5997 162.366L53.602 149.431L59.889 142.655L69.8946 153.434L63.6064 160.21ZM88.7582 21.0052C90.7587 21.0052 92.4739 22.853 92.4739 25.0088V29.0125C92.4739 31.1683 90.7587 33.0162 88.7582 33.0162C86.7576 33.0162 85.0453 31.1683 85.0453 29.0125V25.0088C85.0453 22.545 86.7576 21.0052 88.7582 21.0052ZM70.7521 21.0052C72.751 21.0052 74.4661 22.853 74.4661 25.0088V29.0125C74.4661 31.1683 72.751 33.0162 70.7521 33.0162C68.751 33.0162 67.0359 31.1683 67.0359 29.0125V25.0088C67.3215 22.545 68.751 21.0052 70.7521 21.0052ZM53.0289 21.0052C55.0312 21.0052 56.7466 22.853 56.7466 25.0088V29.0125C56.7466 31.1683 55.0312 33.0162 53.0289 33.0162C51.029 33.0162 49.3138 30.8604 49.3138 28.7045V24.7009C49.3138 22.545 51.029 21.0052 53.0289 21.0052ZM35.0212 21.0052C37.0235 21.0052 38.7386 22.853 38.7386 25.0088V29.0125C38.7386 31.1683 37.0235 33.0162 35.0212 33.0162C33.0212 33.0162 31.3058 31.1683 31.3058 29.0125V25.0088C31.5918 22.545 33.0212 21.0052 35.0212 21.0052ZM17.3003 21.0052C19.3014 21.0052 21.0154 22.853 21.0154 25.0088V29.0125C21.0154 31.1683 19.3014 33.0162 17.3003 33.0162C15.2992 33.0162 13.584 31.1683 13.584 29.0125V25.0088C13.584 22.545 15.2992 21.0052 17.3003 21.0052ZM10.7262 150.047C6.43829 150.047 2.72288 146.351 2.72288 141.423V23.7769C2.72288 19.1573 6.15233 15.1536 10.7262 15.1536H15.2992V17.3095C12.1557 18.2334 9.86747 21.3131 9.86747 24.7009V28.7045C9.86747 33.0162 13.0121 36.4039 17.0143 36.4039C21.0154 36.4039 24.1601 33.0162 24.1601 28.7045V24.7009C24.1601 21.0052 21.8733 18.2334 18.7287 17.3095V15.1536H33.0212V17.3095C29.8766 18.2334 27.5907 21.3131 27.5907 24.7009V28.7045C27.5907 33.0162 30.7353 36.4039 34.7353 36.4039C38.7386 36.4039 41.8833 33.0162 41.8833 28.7045V24.7009C41.8833 21.0052 39.5951 18.2334 36.4504 17.3095V15.1536H50.743V17.3095C47.5987 18.2334 45.3127 21.3131 45.3127 24.7009V28.7045C45.3127 33.0162 48.4562 36.4039 52.4584 36.4039C56.4595 36.4039 59.6042 33.0162 59.6042 28.7045V24.7009C59.6042 21.0052 57.3171 18.2334 54.1725 17.3095V15.1536H68.4651V17.3095C65.3204 18.2334 63.0337 21.3131 63.0337 24.7009V28.7045C63.0337 33.0162 66.178 36.4039 70.1805 36.4039C74.1807 36.4039 77.3257 33.0162 77.3257 28.7045V24.7009C77.3257 21.0052 75.0397 18.2334 71.8948 17.3095V15.1536H86.1868V17.3095C83.0419 18.2334 80.756 21.3131 80.756 24.7009V28.7045C80.756 33.0162 83.9009 36.4039 87.902 36.4039C91.9031 36.4039 95.048 33.0162 95.048 28.7045V24.7009C95.048 21.0052 92.7592 18.2334 89.6171 17.3095V15.1536H95.048C99.3345 15.1536 103.053 18.8493 103.053 23.7769V90.6075L95.9042 98.3069V53.6505C95.9042 52.7266 95.048 51.8027 94.189 51.8027C93.3329 51.8027 92.1885 52.7266 92.1885 53.6505V102.311L62.1769 134.648H13.584V53.6505C13.584 52.7266 12.7262 51.8027 11.8686 51.8027C11.0121 51.8027 10.1534 52.7266 10.1534 53.6505V136.496C10.1534 137.42 11.0121 138.344 11.8686 138.344H58.7466C49.5998 148.199 51.5997 146.043 50.743 146.967C50.4573 147.275 50.1725 147.583 50.1725 147.891L49.8843 149.739H10.7262V150.047ZM118.772 78.9045C121.632 75.8247 126.203 75.8247 128.778 78.9045C131.634 81.9842 131.634 86.9118 128.778 89.6836L126.489 92.7634L116.486 81.9842L118.772 78.9045ZM113.627 84.448L123.632 95.2272L121.061 97.9989L111.055 87.2198L113.627 84.448ZM64.1769 137.728L95.048 104.466C99.6227 99.5388 103.624 95.2272 108.481 89.9916L112.197 93.9953L65.8923 144.195L62.1769 140.192C62.1769 139.884 64.1769 137.728 64.1769 137.728ZM72.1802 150.971L68.4651 146.967L115.056 96.767L118.772 100.771L72.1802 150.971ZM122.488 102.311L131.349 92.7634C135.635 88.1437 135.635 81.0603 131.349 76.4407C127.062 71.821 120.487 71.821 116.201 76.4407L106.481 86.9118V23.7769C106.481 17.0015 101.338 11.4579 95.048 11.4579H90.4733V1.91072C90.4733 0.986791 89.6172 0.0628662 88.7582 0.0628662C87.902 0.0628662 87.0458 0.986791 87.0458 1.91072V11.4579H72.751V1.91072C72.751 0.986791 71.8948 0.0628662 71.0369 0.0628662C70.1805 0.0628662 69.3215 0.986791 69.3215 1.91072V11.4579H55.0312V1.91072C55.0312 0.986791 54.1725 0.0628662 53.316 0.0628662C52.4585 0.0628662 51.5997 0.986791 51.5997 1.91072V11.4579H37.3091V1.91072C37.3091 0.986791 36.4504 0.0628662 35.594 0.0628662C34.7353 0.0628662 33.8788 0.986791 33.8788 1.91072V11.4579H19.5874V1.91072C19.5874 0.986791 18.7286 0.0628662 17.8719 0.0628662C17.0143 0.0628662 16.1568 0.986791 16.1568 1.91072V11.4579H11.5829C5.29477 11.4579 0.150146 17.0015 0.150146 23.7769V141.423C0.150146 148.199 5.29477 153.742 11.5829 153.742H49.3138L47.5987 164.522C47.3138 165.753 48.4562 166.985 49.5998 166.677L64.7488 163.906C65.0356 163.906 65.3204 163.598 65.6064 163.29L74.4661 153.742H95.048C101.338 153.742 106.481 148.199 106.481 141.423V119.557C108.481 117.401 120.487 104.466 122.488 102.311Z" stroke="#386641"/>
<path d="M24.4459 61.3499H81.6149C82.471 61.3499 83.33 60.426 83.33 59.502C83.33 58.5781 82.471 57.6542 81.6149 57.6542H24.4459C23.5883 57.6542 22.7308 58.5781 22.7308 59.502C22.4459 60.426 23.3024 61.3499 24.4459 61.3499Z" stroke="#386641"/>
<path d="M24.4459 69.0492H81.6149C82.471 69.0492 83.33 68.1253 83.33 67.2014C83.33 66.2774 82.471 65.3535 81.6149 65.3535H24.4459C23.5883 65.3535 22.7308 66.2774 22.7308 67.2014C22.4459 68.1253 23.3024 69.0492 24.4459 69.0492Z" stroke="#386641"/>
<path d="M24.4459 76.7487H81.6149C82.471 76.7487 83.33 75.8248 83.33 74.9008C83.33 73.9769 82.471 73.053 81.6149 73.053H24.4459C23.5883 73.053 22.7308 73.9769 22.7308 74.9008C22.4459 75.8248 23.3024 76.7487 24.4459 76.7487Z" stroke="#386641"/>
<path d="M24.4459 84.448H81.6149C82.471 84.448 83.33 83.5241 83.33 82.6002C83.33 81.6762 82.471 80.7523 81.6149 80.7523H24.4459C23.5883 80.7523 22.7308 81.6762 22.7308 82.6002C22.4459 83.5241 23.3024 84.448 24.4459 84.448Z" stroke="#386641"/>
<path d="M24.4459 92.1473H81.6149C82.471 92.1473 83.33 91.2234 83.33 90.2995C83.33 89.3756 82.471 88.4516 81.6149 88.4516H24.4459C23.5883 88.4516 22.7308 89.3756 22.7308 90.2995C22.4459 91.2234 23.3024 92.1473 24.4459 92.1473Z" stroke="#386641"/>
<path d="M24.4459 99.8467H54.7443C55.603 99.8467 56.4594 98.9228 56.4594 97.9988C56.4594 97.0749 55.603 96.151 54.7443 96.151H24.4459C23.5883 96.151 22.7308 97.0749 22.7308 97.9988C22.4459 98.9228 23.3024 99.8467 24.4459 99.8467Z" stroke="#386641"/>
<path d="M24.4459 107.546H42.4539C43.3104 107.546 44.1691 106.622 44.1691 105.698C44.1691 104.774 43.3104 103.85 42.4539 103.85H24.4459C23.5883 103.85 22.7308 104.774 22.7308 105.698C22.4459 106.622 23.3024 107.546 24.4459 107.546Z" stroke="#386641"/>
</svg>
