<?xml version="1.0" standalone="no"?>
<!DOCTYPE svg PUBLIC "-//W3C//DTD SVG 20010904//EN"
 "http://www.w3.org/TR/2001/REC-SVG-20010904/DTD/svg10.dtd">
<svg version="1.0" xmlns="http://www.w3.org/2000/svg"
 width="700.000000pt" height="700.000000pt" viewBox="0 0 700.000000 700.000000"
 preserveAspectRatio="xMidYMid meet">
<metadata>
Created by potrace 1.14, written by Peter Selinger 2001-2017
</metadata>
<g transform="translate(0.000000,700.000000) scale(0.100000,-0.100000)"
fill="#000000" stroke="none">
<path d="M3190 6989 c-292 -32 -592 -113 -850 -229 -488 -220 -958 -623 -1228
-1051 -162 -257 -288 -578 -351 -894 -46 -228 -55 -338 -56 -645 0 -266 2
-308 23 -423 135 -748 552 -1488 1338 -2374 274 -310 801 -825 1213 -1187 216
-189 218 -191 239 -175 44 35 343 298 492 433 218 198 743 724 905 906 801
903 1224 1650 1356 2395 27 152 37 501 20 696 -51 579 -223 1048 -539 1463
-96 127 -323 354 -466 468 -412 329 -849 522 -1366 603 -124 20 -596 29 -730
14z m439 -1400 c414 -39 704 -241 816 -568 56 -164 61 -399 11 -544 -65 -191
-154 -320 -400 -576 -100 -104 -197 -215 -216 -246 -47 -80 -70 -175 -77 -332
l-6 -133 -259 0 -258 0 0 83 c1 114 17 316 31 374 17 72 71 180 127 254 28 36
103 115 168 175 246 227 318 305 357 384 91 185 64 388 -68 509 -96 87 -197
123 -350 124 -231 2 -418 -127 -506 -348 -13 -33 -24 -61 -25 -63 -1 -2 -106
39 -233 90 -263 106 -243 85 -197 200 63 157 185 313 326 420 136 104 328 178
506 197 114 12 127 12 253 0z m23 -2793 c75 -36 159 -126 188 -203 31 -83 25
-205 -14 -282 -116 -225 -403 -275 -578 -100 -72 72 -101 137 -106 239 -5 107
18 176 85 251 88 97 165 131 288 126 62 -3 93 -10 137 -31z"/>
</g>
</svg>
