<svg width="1440" height="566" viewBox="0 0 1440 566" fill="none" xmlns="http://www.w3.org/2000/svg">
<path d="M0 291.6L20 306.16C40 320.72 80 349.84 120 355.44C160 361.04 200 343.12 240 315.12C280 287.12 320 249.04 360 253.52C400 258 440 305.04 480 309.52C520 314 560 275.92 600 263.6C640 251.28 680 264.72 720 279.28C760 293.84 800 309.52 840 309.52C880 309.52 920 293.84 960 273.68C1000 253.52 1040 228.88 1080 245.68C1120 262.48 1160 320.72 1200 328.56C1240 336.4 1280 293.84 1320 274.8C1360 255.76 1400 260.24 1420 262.48L1440 264.72V81.04L1420 87.76C1400 94.48 1360 107.92 1320 111.28C1280 114.64 1240 107.92 1200 92.24C1160 76.56 1120 51.92 1080 51.92C1040 51.92 1000 76.56 960 79.92C920 83.28 880 65.36 840 47.44C800 29.52 760 11.6 720 8.24002C680 4.88002 640 16.08 600 32.88C560 49.68 520 72.08 480 69.84C440 67.6 400 40.72 360 42.96C320 45.2 280 76.56 240 88.88C200 101.2 160 94.48 120 76.56C80 58.64 40 29.52 20 14.96L0 0.400024V291.6Z" fill="#5F8966"/>
<path d="M0 567.12H20C40 567.12 80 567.12 120 567.12C160 567.12 200 567.12 240 567.12C280 567.12 320 567.12 360 567.12C400 567.12 440 567.12 480 567.12C520 567.12 560 567.12 600 567.12C640 567.12 680 567.12 720 567.12C760 567.12 800 567.12 840 567.12C880 567.12 920 567.12 960 567.12C1000 567.12 1040 567.12 1080 567.12C1120 567.12 1160 567.12 1200 567.12C1240 567.12 1280 567.12 1320 567.12C1360 567.12 1400 567.12 1420 567.12H1440V262.48L1420 260.24C1400 258 1360 253.52 1320 272.56C1280 291.6 1240 334.16 1200 326.32C1160 318.48 1120 260.24 1080 243.44C1040 226.64 1000 251.28 960 271.44C920 291.6 880 307.28 840 307.28C800 307.28 760 291.6 720 277.04C680 262.48 640 249.04 600 261.36C560 273.68 520 311.76 480 307.28C440 302.8 400 255.76 360 251.28C320 246.8 280 284.88 240 312.88C200 340.88 160 358.8 120 353.2C80 347.6 40 318.48 20 303.92L0 289.36V567.12Z" fill="#386641"/>
</svg>
